<?xml version="1.0" encoding="UTF-8"?><svg id="Layer_1" xmlns="http://www.w3.org/2000/svg" viewBox="0 0 1166 391.07"><defs><style>.cls-1{fill:#f3732a;}</style></defs><path d="m687.74,202.89c0-37.25,0-74.5,0-111.75,0-8.61,1.02-9.18,9.73-9.01,16.31.33,32.68-.7,48.92.41,13.63.93,27.32,3.39,38.01,13.54,11.44,10.86,15.38,24.83,15.89,39.82.49,14.36.03,28.76-.29,43.14-.25,11-3.64,21.36-10.74,29.56-7.04,8.14-6.57,16.25-4.02,25.57,4.23,15.47,7.73,31.14,11.83,46.65,2.93,11.09,6.11,22.12,9.61,33.04,2.19,6.86.13,9.96-6.92,9.75-7.82-.23-15.65-.16-23.48.02-6.4.15-8.4-3.75-9.65-9.09-3.73-15.91-7.74-31.75-11.56-47.64-2.48-10.29-4.71-20.65-7.27-30.92-1.02-4.11-3.7-4.7-8.2-4.78-2.23-.04-4.63-.25-6.83-.07-6.35.52-9.68,1.22-9.68,7.46,0,25.1,0,50.2,0,75.3,0,8.4-1.24,9.6-9.44,9.64-6.87.03-13.79.72-20.58.04-1.98-.2-5.05-4.05-5.11-6.31-.44-14.93-.18-29.89-.17-44.84.01-23.18,0-46.36,0-69.54h-.03Zm77.88-46.08c0-6.15.01-12.31,0-18.46-.03-9.02-4.93-17.3-13.57-19.29-7.85-1.81-16.22-1.81-24.33-1.61-1.86.05-5.06,4.1-5.18,6.43-.41,8.17.52,16.4.47,24.6-.07,12.6-.48,25.2-.85,37.8-.22,7.56,1.92,9.87,9.49,9.84,3.52-.01,7.05.18,10.55-.06,3.68-.25,8.07.23,10.85-1.59,7.69-5.05,13.32-11.82,12.62-22.07-.35-5.17-.06-10.39-.05-15.58Z"/><path d="m833.61,202.31c0-20.46.67-40.96-.23-61.38-.64-14.62,4.97-26.4,12.9-37.65,10.89-15.45,26.92-22.22,44.85-22.53,21.77-.38,38.02,10.9,49.68,29,6.52,10.12,8.45,21.25,8.41,33.1-.14,42.04.34,84.08-.12,126.11-.23,20.34-10.28,36.18-27.52,46.49-21.01,12.57-42.76,11.35-62.82-1.92-11.2-7.41-19.62-18.32-23.02-31.99-1.12-4.48-1.98-9.16-2.03-13.76-.21-21.82-.09-43.65-.11-65.47Zm77.9-58.3c1.52-9.34,0-17.47-8.45-23.6-6.34-4.6-12.53-5.99-19.41-2.81-7.54,3.48-14.41,8.76-14.49,17.59-.38,44.59-.24,89.18-.07,133.78.04,10.6,13.97,22.18,23.73,19.89,9.36-2.2,20.1-10.79,19.66-23.35-.6-17.26-.82-34.53-.93-51.8-.15-23.23-.04-46.46-.04-69.69Z"/><path d="m412.79,203.5c0-21.82-.27-43.65.08-65.46.32-19.42,8.79-34.56,25.13-45.45,9.33-6.22,19.64-9.82,30.48-10.08,18.45-.44,33.79,6.89,45.84,21.32,11.33,13.57,14.96,28.94,13.04,46.1-.27,2.4-.04,4.92.33,7.33.71,4.62-1.1,7.26-5.75,7.35-8.79.18-17.59.04-26.38.12-5.11.05-5.87-2.83-5.74-7.22.25-8.24.98-16.67-.37-24.71-1.38-8.19-8.89-12.26-16.04-14.67-6.55-2.21-12.74-.22-18.09,5.13-5.51,5.5-7.48,11.36-7.41,19.15.37,41.08.17,82.17.18,123.25,0,12.29,5.37,19.18,17.37,22.36,11.16,2.96,25.17-7.64,25.12-19.24-.03-7.65-.35-15.3-.88-22.93-.55-7.97,2.67-10.66,10.64-9.89,6.06.59,12.29.21,18.36-.48,5.21-.59,9.3,3.5,8.99,8.73-.47,8.05.17,16.16-.09,24.23-.15,4.57-.66,9.24-1.85,13.64-6.15,22.76-29.56,41.17-53.18,41.83-25.03.7-49.96-15.57-56.01-37.46-1.85-6.7-3.45-13.7-3.6-20.6-.47-20.77-.17-41.56-.17-62.34Z"/><path d="m1094.97,259.75c1.58,13.73-2.05,27.96-11.5,40.33-14.32,18.72-35.69,27.46-59.83,21.97-13.36-3.04-24-10-32.15-20.22-7.57-9.5-12.16-20.58-12.09-33.39.24-42.85.21-85.7,0-128.55-.1-21.31,10.12-37.02,27.01-48.16,15.81-10.43,33.35-12.74,51.41-5.08,17.65,7.48,29.83,20.65,34.57,38.79,2.96,11.33,1.92,23.74,2.25,35.68.03,1.12-3.02,3.27-4.7,3.34-8.62.34-17.28.41-25.9.06-4.97-.2-7.32-2.66-7-8.51.58-10.53,4.16-21.79-4.85-30.96-7.12-7.24-16.16-9.64-23.59-6.08-10.51,5.03-15.16,13.11-13.86,23.99.18,1.5.14,3.03.13,4.55-.28,34.78-.72,69.57-.74,104.35,0,7.92-.71,16.89,2.6,23.53,7.21,14.47,21.68,18.81,34.74,5.56,5.23-5.31,7.01-11.66,6.82-18.78-.16-6.07-.47-12.13-.81-18.19-.32-5.61,2.9-8.79,8.58-8.53,7.25.33,14.5.7,21.75.71,5.05,0,7.39,2.05,7.2,7.18-.18,4.87-.04,9.75-.04,16.42Z"/><path d="m557.73,123.48c0-11.39.04-22.77-.02-34.15-.03-4.8,1.86-7.11,7.02-7.09,28.78.11,57.57.01,86.35,0,8.74,0,10.1,1.4,10.1,10.13,0,6.23.07,12.45.1,18.68.03,5.28-3.43,6.61-7.79,6.62-17.77.03-35.55.07-53.32-.09-5.18-.05-7.31,1.87-7.23,7.23.23,14.54.08,29.09.08,43.64,0,1.12.01,2.24-.01,3.36q-.3,12.33,12.37,12.32c10.07,0,20.15.16,30.22-.09,5.57-.14,7.61,2.2,7.44,7.6-.23,7.06-.06,14.13.02,21.19.06,4.74-2.38,6.97-6.92,6.89-10.85-.2-21.7-.38-32.55-.83-8.52-.35-10.57,1.37-10.57,9.74,0,17.5.12,35.01-.07,52.51-.06,5.36,2.2,7.27,7.31,7.22,17.22-.18,34.44-.18,51.66-.25,7.43-.03,9.47,2.09,9.37,9.6-.08,6.15-.05,12.29-.08,18.44-.03,5.45-3.01,7.69-8.22,7.7-24.76,0-49.52.08-74.28.06-5.19,0-10.54.4-15.5-.76-2.24-.52-5.25-4.39-5.27-6.76-.16-17.8.49-35.6.59-53.4.14-24.99-.8-49.19-.8-74.18,0,0,0-43.79,0-65.3Z"/><path class="cls-1" d="m241.74,298.9c-2.59-4.79-5.31-9.48-8.44-13.95-7.61-10.86-15.53-21.47-24.66-31.13-2.75-2.91-5.45-5.87-8.17-8.82-.82-.89-1.48-1.88-1.63-3.1-.38-3.22-.85-6.44-1.03-9.67-.32-5.88-.47-11.77-.67-17.65-.08-2.51-.16-5.02-.16-7.53,0-2.89,0-5.79.15-8.67.11-2.15.43-4.3.67-6.45.22-1.96-.58-3.52-1.86-4.91-.49-.53-1.04-.66-1.69-.31-.43.23-.87.45-1.31.66-1.32.63-2.59,1.41-3.98,1.84-3.42,1.08-6.93,1.89-10.5,2.32-3.25.39-6.51.68-9.78.93-4.35.33-8.71.38-13.05-.01-3.99-.36-7.97-.81-11.94-1.35-4.43-.6-8.77-1.64-12.9-3.4-5.03-2.14-10.05-4.31-15.03-6.57-11.6-5.26-23.47-9.8-35.58-13.68-11.72-3.76-23.62-6.82-35.81-8.68-2.27-.35-4.56-.51-6.84-.76-.03.11-.06.22-.09.33.36.16.72.35,1.09.49,2.23.79,4.46,1.59,6.7,2.36,8.58,2.95,16.96,6.35,25.09,10.38,12.73,6.32,24.91,13.55,36.63,21.59,10.17,6.97,19.74,14.69,29.05,22.75.92.8,1.34.79,2.18-.15,1.19-1.32,2.37-2.65,3.56-3.97,2.49-2.73,4.98-5.46,7.79-7.87,2.08-1.78,4.31-3.34,6.93-4.21,5.37-1.77,10.72-1.57,15.96.52,3.32,1.32,5.54,3.78,6.73,7.16,1.19,3.38,1.43,6.84.69,10.31-1.69,7.99-5.29,15.01-10.89,20.99-1.1,1.17-1.07,1.41.29,2.26,4.36,2.69,8.78,5.29,13.06,8.11,15.72,10.38,29.88,22.63,42.95,36.17,6.3,6.53,12.22,13.39,17.8,20.54.43.55.86,1.1,1.32,1.62.11.12.36.12.77.23-.72-2-1.36-3.77-1.99-5.52l-.94-2.3c-.17-.29-.34-.58-.51-.88Z"/><path d="m320.59,357.52c-2.53-4.69-4.9-9.49-7.66-14.04-7.92-13.03-16.47-25.64-25.71-37.77-3.47-4.55-6.99-9.05-10.5-13.57-.63-.82-1.04-1.71-1.32-2.7-1.46-5.05-3.54-9.83-6.44-14.23-2.38-3.61-4.71-7.25-7.09-10.86-2.7-4.11-5.42-8.2-8.15-12.29-.55-.82-.85-1.67-.71-2.66.05-.38.06-.76.1-1.15.25-2.85.5-5.69.74-8.54.32-3.82.66-7.64.95-11.46.27-3.61.56-7.23.67-10.85.1-3.52,0-7.04-.06-10.56-.04-1.98-.07-3.97-.5-5.93-.38-1.73-.62-3.52-1.5-5.1-1.6-2.87-3.36-5.63-5.59-8.06-2.47-2.69-5.37-4.74-8.82-6-1.89-.69-3.53-.37-5.02,1.01-1.07.99-2.17,1.99-3.36,2.82-2.11,1.47-4.24,2.95-6.5,4.18-2.45,1.33-5.06,1.45-7.63.14-4.22-2.16-6.42-5.67-6.77-10.33-.17-2.22-.2-4.46-.21-6.69-.02-3.66,0-7.32.03-10.99.01-1.38-.49-2.49-1.53-3.4-2.07-1.83-4.27-3.48-6.61-4.93-6.41-3.97-13.4-6.48-20.7-8.21-.27-.06-.55-.09-.83-.09-.68,0-.85.16-.92.85-.02.21-.01.42,0,.63.06,1.85.13,3.69.17,5.54.1,4.36.18,8.71.29,13.07.11,4.63.24,9.27.34,13.9.06,2.68.07,5.37.12,8.05.02.91.79,1.51,1.68,1.35.38-.07.75-.14,1.12-.24,2.12-.56,4.24-1.13,6.36-1.7,1.28-.34,2-1.18,2.22-2.48.15-.89.26-1.81.54-2.66.92-2.74,1.92-5.46,2.89-8.18.22-.61.63-1.02,1.28-1.07.42-.03.83.58.94,1.36.17,1.24.32,2.49.45,3.74.37,3.43.68,6.86,1.42,10.24.75,3.44,1.42,6.9,1.54,10.43.16,4.95.33,9.89.38,14.84.07,6.56.11,13.12.01,19.67-.04,2.62.45,4.96,1.61,7.32,1.96,3.98,4.01,7.89,6.59,11.5,1.53,2.13,3.23,4.1,5.21,5.84,4.38,3.84,8.58,7.87,12.53,12.15,3.27,3.54,6.25,7.31,9.16,11.15.22.29.46.56.69.84.07-.03.15-.06.22-.08.1-.93.25-1.85.28-2.78.12-3.59.21-7.18.31-10.76.08-2.86.15-5.71.23-8.57.03-1.13-.34-2.12-1.06-2.98-.22-.27-.44-.54-.67-.8-.89-.98-1.3-2.13-1.19-3.45.03-.38.02-.77.05-1.15.28-2.91.55-5.83.84-8.74.54-5.48,1.08-10.96,1.63-16.44.12-1.2.3-2.4.45-3.6.08,0,.15.01.23.02-.07,1.84-.15,3.69-.22,5.53-.18,4.39-.36,8.78-.56,13.16-.08,1.67-.33,3.34-.32,5,.02,2.45.39,4.86,1.34,7.15.48,1.17.89,2.36.91,3.63.02,1.64.02,3.28-.02,4.91-.07,2.58-.23,5.15-.29,7.73-.05,1.72.32,2.11,1.93,2.6.73.22,1.44.53,2.11.88.84.43,1.25,1.11,1.19,2.13-.18,3.31-.28,6.62-.44,9.92-.21,4.25-.45,8.49-.69,12.74-.04.78-.16,1.56-.24,2.34-.01,0-.03,0-.04.01l1.21,1.98c.27-.12.47-.12,1.09-.12,1.69,0,2.02-.3,2.22-1.94.07-.55.13-1.11.23-1.66.29-1.65.83-3.16,2.12-4.33,1.63-1.47,3.85-1.58,5.4-.15,1.9,1.74,3.81,3.49,5.6,5.34,6.37,6.59,12.71,13.21,19.03,19.86,5.21,5.48,10.41,10.98,15.55,16.53,7.7,8.31,15.34,16.67,23.02,25,1.32,1.44,2.71,2.82,4.47,3.74.44.24.92.42,1.45.66.11-.77-.16-1.29-.43-1.81-.93-1.79-1.84-3.6-2.8-5.38Z"/><path d="m204.37,270.14c-6.29-5.29-13.23-9.65-20.16-14.01-1.41-.88-2.3-.67-3.35.62-.9,1.11-1.8,2.22-2.7,3.33-2.45,2.99-4.96,5.95-6.99,9.26-6.99,11.37-13.66,22.94-20.29,34.52-.61,1.07-1.31,2.05-2.2,2.91-2.22,2.17-4.41,4.36-6.64,6.53-3.73,3.62-7.07,7.61-10.4,11.59-8.08,9.65-15.95,19.47-23.5,29.54-2.95,3.93-5.89,7.87-8.83,11.81-.22.29-.39.62-.58.93.08.08.16.17.24.25.31-.2.64-.37.93-.59.8-.62,1.57-1.27,2.36-1.9,17.88-14.37,35.75-28.75,53.65-43.1,15.58-12.5,31.2-24.96,46.8-37.43,2.42-1.94,4.87-3.85,7.29-5.78,1.02-.81,1.08-1.39.24-2.37-1.82-2.16-3.7-4.26-5.87-6.09Z"/><path class="cls-1" d="m383.81,163.67c-1.37-.21-2.73-.59-4.12-.09-1.11.4-2.25.74-3.36,1.15-7.82,2.87-15.74,5.41-23.78,7.58-8.98,2.43-18.03,4.54-27.19,6.19-5.79,1.04-11.61,1.91-17.44,2.74-4.38.62-8.78,1.1-13.18,1.57-4.12.44-8.25.92-12.38,1.13-5.42.28-10.86.35-16.29.44-4.84.08-9.69.06-14.53.08-.27,0-.54.03-.95.05.16.31.22.47.31.62,1.02,1.67,2.06,3.31,3.05,5,2.64,4.49,4.1,9.37,4.52,14.55.12,1.46.11,2.92.17,4.38.04.88.28,1.12,1.15,1.1.35,0,.7-.05,1.03-.13,6.45-1.49,12.92-2.87,19.33-4.5,10.33-2.64,20.56-5.6,30.64-9.09,20.33-7.04,40.2-15.2,59.37-24.98,4.37-2.23,8.75-4.46,13.12-6.7.22-.11.45-.21.63-.36.12-.09.24-.28.23-.41-.02-.13-.2-.31-.33-.33Z"/><path d="m198.24,148.56c3.61,2.17,7.21,4.38,10.82,6.56.82.5,1.19.41,1.8-.32.87-1.05,1.72-2.11,2.58-3.16.79-.97,1.6-1.94,2.38-2.92.55-.68.77-1.44.69-2.34-.42-4.76-.84-9.51-1.2-14.27-.36-4.9-.68-9.8-.96-14.71-.21-3.76-.36-7.52-.5-11.28-.21-5.92-.52-11.84-.56-17.76-.07-9.38.04-18.76.08-28.14.01-3.49.05-6.97.07-10.46.01-1.92,0-3.84.04-5.75.12-6.9.22-13.8.39-20.7.09-3.55.3-7.1.45-10.65.01-.26,0-.53,0-.79-.05-.03-.1-.06-.16-.09-.22.28-.5.52-.65.84-.73,1.58-1.47,3.16-2.11,4.78-2.4,6.11-4.08,12.44-5.46,18.85-1.29,5.96-2.41,11.96-3.19,18.01-.66,5.08-1.33,10.16-1.87,15.26-.67,6.34-1.37,12.69-1.78,19.05-.56,8.62-.93,17.26-1.27,25.89-.23,5.82-.26,11.64-.37,17.46-.06,3.31-.1,6.62-.14,9.93-.02,1.64-.03,3.28-.07,4.91-.02.81.27,1.39.98,1.82Z"/><path d="m212.25,175.05c.2,1.7.51,3.37,1.22,4.95,1.71,3.79,5.69,6.11,9.81,5.73,2.04-.19,3.83-1,5.49-2.12,4.8-3.22,8.26-7.53,10.41-12.89,1.32-3.29,2.09-6.71,2.54-10.21.19-1.45.37-2.88-.03-4.35-.56-2.05-.93-4.15-1.81-6.1-1.78-3.96-5.76-6.04-10.01-5.27-2.71.49-5.13,1.6-7.14,3.46-1.38,1.27-2.67,2.66-3.86,4.11-4.44,5.45-6.92,11.63-6.95,18.74.1,1.32.16,2.64.31,3.96Z"/><path class="cls-1" d="m151.48,238.63c3.03.19,5.87-.54,8.61-1.76,5.79-2.56,9.91-6.86,12.86-12.37,1.89-3.54,2.67-7.3,2.02-11.31-.42-2.59-1.41-4.88-3.47-6.6-2.21-1.86-4.82-2.56-7.57-2.6-2.66.07-5.16.54-7.47,1.66-8.65,4.19-14.05,10.86-15.34,20.57-.1.78-.11,1.6,0,2.38.11.86.38,1.7.63,2.53,1.58,5.29,5.69,7.25,9.73,7.5Z"/></svg>