<?xml version="1.0" encoding="UTF-8"?><svg id="Layer_1" xmlns="http://www.w3.org/2000/svg" viewBox="0 0 400 400"><path d="m394.04,192.76v15.35c-.07.47-.2.94-.2,1.41-.07,5.73-.7,11.4-1.45,17.07-1.22,9.24-3.12,18.35-5.72,27.31-9.55,32.88-26.54,61.32-51.02,85.26-21.64,21.15-46.89,36.37-75.66,45.76-13.26,4.33-26.86,7.14-40.76,8.47-6.13.58-12.28.96-18.44.98-7.4.02-14.79-.43-22.15-1.23-9.12-.98-18.12-2.59-26.98-4.92-35.26-9.25-65.63-26.92-91.02-53.08-32.47-33.44-52.22-78.23-54.28-125.77-.06-1.38-.28-2.76-.43-4.15v-9.84c.15-1.3.36-2.6.43-3.91.27-6.12.86-12.19,1.69-18.26,1.4-10.15,3.53-20.14,6.53-29.94,9.84-32.16,26.83-59.96,50.97-83.39,6.75-6.56,14-12.54,21.65-18.02.33-.24.65-.51,1.04-.81-.57-.42-.98-.74-1.4-1.03-.84-.61-1.71-1.18-2.53-1.83-1.14-.92-1.63-2.06-.99-3.49.21-.47.25-.88-.05-1.35-.43-.69-.4-.94.22-1.42.58-.44,1.26-.76,1.96-1.15-.1-.12-.19-.29-.33-.42-.64-.6-1.3-1.18-1.93-1.8-.14-.13-.21-.42-.18-.6.01-.1.31-.21.49-.22.19-.01.39.06.58.12,1.21.37,2.29.97,3.06,1.99,1.35,1.79,2.64,3.61,3.55,5.68.25.58.61,1.12.97,1.65.71,1.03.82,1.04,1.89.33,16.42-10.78,34.07-18.89,52.95-24.33,9.73-2.81,19.63-4.83,29.68-6.08,5.6-.69,11.21-1.2,16.85-1.31.51-.01,1.02-.13,1.53-.19h11.28c.47.07.93.18,1.4.2,7.13.17,14.19.9,21.24,1.92,10.98,1.6,21.73,4.16,32.26,7.62,16.03,5.27,31.11,12.51,45.26,21.72.39.25.79.49,1.24.77.33-.98.58-1.83.89-2.64.24-.63.51-1.26.86-1.84.61-1.02,1.28-2.02,1.97-2.99.85-1.19,1.54-2.52,2.9-3.29.54-.31.99-.78,1.4-1.25.39-.45.76-.67,1.45-.39-.24,2.65-1.86,4.85-2.55,7.34,1.4.38,1.76-1.37,3.23-1.31-.45.71-.71,1.23-1.08,1.68-.99,1.23-2.23,2.17-3.6,2.94-.46.26-.9.53-1.05,1.08-.27,1.03-.54,2.07-.82,3.13.44.32.79.58,1.14.83,9.5,6.71,18.33,14.2,26.46,22.5,14.94,15.23,27.08,32.43,36.31,51.66,11.57,24.09,17.99,49.47,19.04,76.19.02.43.13.86.2,1.29h0ZM159.02,32.35c.09,1.01-.31,1.67-.74,2.28-.57.81-.82,1.7-.87,2.69-.05,1.19-.19,2.39-.32,3.58-.07.76-.37,1.08-.96.88-.72-.26-1.05.08-1.37.57-.38.6-.77,1.19-1.11,1.8-.89,1.6-2.13,1.92-3.64.92-.76-.49-1.4-.41-2.15.29-.85.81-.79,1.38.22,1.94.77.42,1.62.74,2.31,1.26.91.7,1.9,1.16,2.97,1.51.95.31,1.9.64,2.83.98.95.35,1.77.88,2.49,1.62,1.41,1.47,2.84,2.93,4.33,4.32,1.51,1.42,3.07,2.79,4.68,4.12,2.13,1.75,4.32,3.43,6.46,5.18.59.49,1.18.81,1.94.78,1.12-.05,2.24-.09,3.35-.15,1.15-.07,2.31-.22,3.47-.24,3.16-.06,6.32-.04,9.48-.09.88-.01,1.75-.13,2.62-.25.63-.09,1.26-.25,1.87-.41,2.06-.56,4.15-.78,6.29-.76,2.99.01,6-.02,8.99-.24,3.82-.29,7.63-.79,11.45-1.19,1.68-.18,3.35-.13,5.01.26.54.13,1.1.15,1.66.19.74.06,1.38-.18,2.01-.63.54-.39,1.18-.67,1.82-.88,2.23-.74,4.59-1.01,6.63-2.15,3.32,2.82,3.83,3.52,4.48,6.16-.33.11-.66.25-1,.32-4.6,1.04-9.2,2.07-13.79,3.11-3.04.68-6.07.88-9.15.29-1.65-.31-3.32-.49-5-.56-2.79-.12-5.6-.08-8.4-.17-1.36-.04-2.52.16-3.63,1.14-1.68,1.48-3.85,1.61-5.98,1.76-.77.06-1.51-.02-2.21-.39-.93-.5-1.86-.47-2.89-.17-4.1,1.22-8.26,2.25-12.6,2-.91-.05-1.85-.08-2.76,0-3.32.32-6.4-.49-9.4-1.85-3.38-1.53-6.82-2.96-10.23-4.42-2.19-.94-2.79-.82-4.46.85-1.79,1.78-3.52,3.6-5.35,5.33-2.79,2.64-4.13,5.93-4.43,9.69-.2,2.5-.18,5.04-.76,7.5-.41,1.75-.4,3.38,1.04,4.76.7.67.92,1.63.4,2.54-.55.96-.6,1.99-.57,3.02.02,1.34.34,2.61,1.26,3.67,2.74,3.11,4.55,6.74,6,10.57.41,1.09.6,2.22.59,3.41,0,.91.1,1.84.28,2.74.18.87.65,1.55,1.66,1.62.59.04.96.4,1.19.89.35.76.69,1.53.93,2.33.43,1.41.77,2.85,1.2,4.26.15.49.41.94.66,1.39.4.73.91,1.4,1.24,2.17,1.48,3.46,3.16,6.81,5.01,10.09,1.44,2.57,3.14,4.9,5.51,6.73,1.08.83,1.97,1.85,2.67,3.04.3.51.89.88,1.41,1.22.4.25.89.35,1.35.49.53.18.87.46.96,1.09.07.49.24,1.04.55,1.43,1.44,1.82,2.96,3.57,5.24,4.43,2.7,1.03,5.46,1.83,8.29,2.35.71.13,1.24.4,1.49,1.03.24.58.34,1.21.46,1.84.05.29,0,.6,0,.89h2.98c-.18-.21-.24-.3-.32-.38-1.11-1.16-1.01-2.05.4-2.86.62-.35,1.3-.62,1.98-.83,3.54-1.09,6.63-2.94,9.43-5.34,1.79-1.53,3.6-3.05,5.43-4.52,3.61-2.89,6.65-6.26,8.55-10.51,1.03-2.29,1.9-4.66,2.74-7.03.68-1.92,1.21-3.89,1.82-5.84.4-1.24,1.05-2.29,1.99-3.22,3.37-3.3,6.71-6.63,10.01-10.01.69-.71,1.34-.82,2.11-.41.48.26.96.6,1.29,1.01.48.6,1.04.99,1.76,1.15.77.18,1.56.37,2.35.44,1.47.13,2.99,0,4.42.3,3.15.63,6.32.96,9.5,1.22,1.57.13,3.05.49,4.6,1.34-.96.82-1.83,1.65-2.78,2.35-1.7,1.27-3.42,2.51-5.18,3.68-.88.59-1.34,1.33-1.33,2.38,0,1.08-.03,2.16,0,3.24.15,4.78-.58,9.49-1.17,14.21-.51,4.05-.75,8.13-.59,12.21.09,2.09.54,4.12,1.52,5.99.23.44.38.91.6,1.43,1.54.22,133.37.13,134.33-.14-2.64-16.74-7.46-32.82-14.39-48.29-6.96-15.52-15.87-29.83-26.7-42.95-10.8-13.07-23.14-24.48-37.15-34.36-.81,2.63-1.57,5.06-2.3,7.5-.45,1.49-.92,2.98-1.32,4.48-.29,1.08-.93,1.71-2.02,1.94-2.46.51-4.92,1.06-7.39,1.56-2.37.47-4.76.61-7.16.26-.73-.11-1.48-.11-2.3-.17.55-2.94,1.35-5.58,3.48-7.81-.03,0,.17-.03.36-.03,2.36,0,4.72-.04,7.08.01.95.02,1.63-.31,2.1-1.09.56-.92,1.08-1.87,1.65-2.78.92-1.45,1.88-2.87,2.79-4.32.42-.67.77-1.38,1.2-2.17-20.52-13.6-42.7-22.95-66.7-27.87-33.32-6.83-66.22-5.15-98.64,5.19-16.49,5.26-31.94,12.72-46.49,22.34,2.17,2.48,4.21,4.84,6.28,7.17.77.87,1.62,1.65,2.43,2.49.53.54,1.11.72,1.83.4,2.04-.91,4.13-1.72,6.11-2.73,3.17-1.62,6.26-3.37,9.39-5.04,1.04-.56,2.17-.73,3.36-.67,2.23.13,4.48.12,6.71.27,2.21.15,4.01-.71,5.57-2.08,1.37-1.19,2.45-2.63,2.39-4.63-.02-.79.1-1.58.17-2.47,6.73-1.06,13.43-1.01,20.23-.81v-.03Zm-39.07,136.81c-.04-.62-.14-1.16-.12-1.71.1-1.89-.61-3.26-2.43-3.95-.07-.03-.14-.07-.21-.12-.93-.6-1.21-1.27-.88-2.35.26-.84.61-1.65.98-2.45.67-1.45,1.39-2.88,2.07-4.32.47-.99.69-2.01.68-3.13-.04-3.68,0-7.35-.03-11.04,0-1.07-.1-2.15-.21-3.23-.27-2.71-.74-5.4-.82-8.1-.11-3.35-1-6.45-2.19-9.51-.36-.93-.75-1.86-1.01-2.82-.32-1.11-.61-2.24-.75-3.38-.22-1.71-.18-1.75-1.82-2.15-1-.25-1.64-.82-1.72-1.88-.04-.47-.06-.96-.01-1.43.1-1,.25-1.98.39-2.97.32-2.45.66-4.9.98-7.36.26-2.01.51-4.04.79-6.06.23-1.66.43-3.32.76-4.96.89-4.5,2.39-8.85,2.66-13.5.17-2.86.83-5.69,1.19-8.54.21-1.62.36-3.26.35-4.89-.01-1.56-.54-2.01-2.07-1.96-2.24.08-4.47.25-6.7.42-3.27.24-6.54.5-9.81.77-.74.06-1.34-.18-1.81-.73-.51-.61-1.06-1.21-1.51-1.86-1.07-1.54-2.11-3.12-3.12-4.69-1.34-2.08-2.64-4.19-3.97-6.28-.16-.26-.39-.47-.62-.76-23.72,17.08-42.58,38.35-56.47,63.97-10.35,19.1-17.18,39.4-20.63,60.95h108.08v-.02Zm172.36,162.12c-.05-.05-.11-.09-.17-.14.17-.26.34-.52.52-.77,6.45-9.05,13.13-17.95,20.2-26.53,2.05-2.49,4.25-4.88,6.36-7.32.2-.23.43-.56.4-.81-.09-.74-.23-1.51-.5-2.2-.11-.3-.57-.6-.91-.65-2.78-.48-5.51-.61-7.84,1.42-.05.04-.14.02-.27.04-.68-1.24-1.83-1.83-3.18-2.05-.63-.11-1.27-.17-1.9-.2-2.63-.11-5.17.38-7.67,1.13-8.24,2.46-15.39,6.83-21.69,12.6-4.13,3.77-7.28,8.27-8.96,13.69-.1.32-.3.7-.57.87-1.4.92-2.8,1.85-4.29,2.61-.71.36-1.63.51-2.43.46-2.17-.11-2.89-1.17-2.38-3.29.15-.61.38-1.23.65-1.8.58-1.18,1.13-2.4,1.86-3.48,2.57-3.82,5.21-7.57,7.8-11.37,1.43-2.11,2.83-4.26,4.19-6.42.4-.64.67-1.36.9-2.08.77-2.4-.36-4.51-2.76-5.28-1.25-.4-2.53-.36-3.8-.14-2.81.49-5.29,1.76-7.63,3.35-2.82,1.92-5.36,4.17-7.8,6.55-.44.43-.88.86-1.33,1.29.32-.77.79-1.4,1.22-2.06,1.15-1.77,2.34-3.54,3.4-5.36.48-.82.8-1.75,1.02-2.67.28-1.21-.27-1.86-1.51-1.84-1.04.02-2.07.13-3.1.32-1.88.35-3.43,1.31-4.52,2.9-.96,1.38-1.91,2.76-2.82,4.17-5.32,8.32-10.66,16.62-15.92,24.98-1.13,1.79-2.7,2.8-4.59,3.41-.89.29-1.88.37-2.82.35-1.21-.03-1.73-.68-1.62-1.89.05-.63.19-1.28.45-1.85.52-1.17,1.11-2.3,1.74-3.41,3.67-6.42,7.37-12.82,11.04-19.24.62-1.08,1.13-2.2,1.7-3.3.39-.74.3-1.45-.07-2.17-1.3-2.47-3.35-3.13-5.82-1.84-.46.24-.93.48-1.33.8-1.68,1.35-3.38,2.67-5,4.1-.87.76-1.6,1.67-2.34,2.57-.7.86-.66,1.11.03,1.99.27.35.56.68.87.99.55.56.64,1.13.2,1.82-.73,1.14-1.41,2.32-2.09,3.5-2.01,3.55-4.04,7.08-6,10.65-.92,1.68-1.63,3.46-2.08,5.35-.45,1.88-.09,3.55,1,5.12,2.38,3.43,6.27,4.99,10.38,4.16,2.82-.57,5.35-1.82,7.79-3.31.77-.48,1.45-1.1,2.41-1.26.39-.07.76-.43,1.07-.73.51-.51.99-1.05,1.43-1.61,7.16-9.08,15.35-17.16,24.12-24.66,1.12-.96,2.35-1.79,3.57-2.64.36-.25.82-.35,1.23-.52.07.08.14.17.2.24-.53.88-1.02,1.78-1.6,2.62-1.61,2.34-3.26,4.64-4.89,6.98-1.81,2.6-3.38,5.35-4.58,8.27-.7,1.69-1.3,3.45-1.65,5.24-.9,4.62,2.25,8.86,6.94,9.44,2.74.33,5.32-.3,7.7-1.7.71-.42,1.42-.83,2.2-1.29.8,1.42,1.98,2.28,3.42,2.79,2.14.76,4.29.95,6.45.11.74-.29,1.5-.55,2.23-.88,4.27-1.9,8.11-4.48,11.74-7.39.48-.39.97-.77,1.45-1.17-.1.44-.31.76-.54,1.05-2.54,3.24-5.14,6.43-7.6,9.74-1.86,2.51-4.1,4.52-6.76,6.17-3.38,2.08-6.42,4.63-9.33,7.33-1.83,1.7-3.38,3.63-4.42,5.92-.75,1.66-1.21,3.39-1.11,5.23.11,2.1,1.17,3.55,3.17,4.2.86.27,1.79.42,2.7.48,1.54.08,2.79-.54,3.71-1.8,2.43-3.33,5.27-6.32,8.05-9.36,6.46-7.08,13.98-12.77,22.45-17.2,3.83-2,7.66-3.98,11.48-5.98.78-.4,1.57-.81,2.3-1.3.34-.23.73-.64.77-.99.17-1.62.3-3.26.3-4.89,0-.86-.64-1.24-1.52-1.07-.51.1-.99.3-1.48.48-6.36,2.51-12.18,5.98-17.83,9.77-1.29.86-2.57,1.77-3.85,2.65h.02Zm-145.17-59.81c-.5.89-.91,1.62-1.3,2.36-.36.67-.4,1.39-.09,2.08.21.47.53.76,1.15.55.63-.21,1.3-.35,1.98-.45,2.21-.33,4.43-.59,6.65-.95,2.01-.33,4.02-.71,5.88-1.61,2.1-1.01,3.58-2.5,3.66-5.03.09-2.7-.49-3.68-3.03-4.61-1.96-.71-4.01-1.08-6.09-1.23-4.62-.35-9.19.08-13.7,1.08-11.24,2.5-21.42,7.36-30.74,14.05-3.11,2.23-5.78,4.92-7.95,8.09-1.28,1.86-2.21,3.88-2.69,6.11-1.02,4.81.56,8.8,4.61,11.58.75.52,1.57.97,2.39,1.38,2.78,1.39,5.73,2.24,8.75,2.83,4.31.85,8.65,1.54,12.96,2.42,2.46.51,4.89,1.17,7.29,1.92,1.04.33,2.04.92,2.93,1.57,1.02.74,1.21,1.73.67,2.88-.32.67-.72,1.38-1.26,1.88-1.46,1.36-2.9,2.77-4.54,3.89-7.66,5.2-16.14,8.19-25.39,8.83-3.17.22-6.32-.14-9.35-1.11-.83-.26-1.64-.64-2.39-1.08-.76-.46-.82-.86-.53-1.73.11-.36.2-.71.31-1.11-.71-.28-1.25-.24-1.76.03-.53.29-1.06.57-1.56.9-3.13,2.11-3.89,5.68-1.92,8.92,1.24,2.04,3.04,3.36,5.23,4.2,2.24.85,4.57,1.15,6.93,1.18,3.69.05,7.34-.39,10.98-.95,5.83-.89,11.5-2.39,16.88-4.86,5.09-2.33,9.82-5.19,13.77-9.23,1.92-1.96,3.55-4.13,4.43-6.77,1.38-4.16.82-7.95-2.17-11.29-1.27-1.42-2.78-2.52-4.44-3.42-3.07-1.65-6.26-3.02-9.68-3.8-2.65-.61-5.31-1.14-7.96-1.72-3.19-.7-6.41-1.36-9.57-2.18-1.37-.36-2.71-.98-3.94-1.7-1.65-.96-1.93-2.55-.79-4.08.86-1.15,1.82-2.24,2.85-3.23,6.85-6.6,14.87-11.28,23.79-14.46,2.79-.99,5.65-1.72,8.78-2.14h0Zm-125.21-19.62v3.07c.19.07.31.13.42.13,118.95.01,237.91.02,356.86.02.32,0,.64-.04.95-.07.04,0,.07-.04.1-.07s.05-.05.08-.1v-2.99H21.93Zm158.15,63.13c.07.19.1.23.09.26-.1.34-.21.68-.33,1.02-1.05,3.09-1.62,6.27-1.51,9.54.1,2.94,1.99,4.8,4.91,5.01,1.59.11,2.99-.39,4.34-1.14,2.25-1.26,4.22-2.89,6.11-4.61,7.71-7.05,13.68-15.38,18.32-24.7,1.04-2.08,1.9-4.23,2.39-6.51.35-1.67.39-3.33-.13-4.98-.34-1.08-.93-1.98-2.04-2.36-1.93-.67-3.74-.36-5.28.96-1.42,1.21-1.63,2.77-.95,4.46.41,1.02.33,2.05-.02,3.05-.43,1.2-.85,2.42-1.41,3.56-3.82,7.78-8.93,14.66-14.83,20.96-.71.75-1.55,1.38-2.38,2.01-.4.31-.99.65-1.41.27-.28-.25-.38-.88-.32-1.3.26-1.61.48-3.25.96-4.8,2.08-6.61,4.88-12.92,7.82-19.18.41-.86.85-1.72,1.23-2.6.35-.8.23-1.14-.49-1.61-.48-.32-.98-.46-1.58-.3-.88.23-1.79.42-2.7.52-.91.08-1.57.46-2.1,1.19-6.17,8.42-12.74,16.52-19.54,24.43-.99,1.15-2.06,2.23-3.12,3.33-.28.29-.65.5-.97.74-.07-.06-.15-.13-.23-.18.17-.52.29-1.05.51-1.54,1.28-2.84,2.56-5.68,3.88-8.5,2.38-5.07,4.79-10.11,7.16-15.17.35-.76.6-1.57.9-2.35.27-.7.03-1.27-.49-1.71-.29-.26-.65-.48-1.01-.61-2.17-.83-4.24-.88-6.24.58-3.17,2.33-6.06,4.96-8.8,7.76-.38.39-.68.89-.91,1.39-.15.3-.21.72-.12,1.03.36,1.26,2.32,2.28,3.6,1.92.27-.08.54-.17.86-.26-1.09,2.18-2.18,4.23-3.13,6.33-1.98,4.33-3.79,8.71-5.04,13.32-.43,1.55-.63,3.13-.37,4.74.4,2.34,1.85,3.57,4.22,3.55,1.62-.01,3.04-.61,4.4-1.39,2-1.13,3.73-2.61,5.38-4.2,3.46-3.33,6.6-6.95,9.49-10.8.26-.35.53-.69.87-1.12h0Zm-52.31-121.08l-.29.07c-3.28,17.32-6.57,34.65-9.85,52.03h7.98c.86-4.97,1.7-9.88,2.58-14.79.88-4.87,1.66-9.76,2.82-14.61,4.8,9.76,9.61,19.52,14.51,29.49,4.93-10.01,9.73-19.77,14.54-29.54.07.01.15.03.22.04,1.72,9.81,3.44,19.62,5.15,29.39,2.05.21,7.04.14,7.95-.11-3.2-16.87-6.38-33.74-9.59-50.62-.07-.39-.18-.78-.26-1.16,0-.02-.06-.04-.1-.06s-.07-.02-.21-.06c-5.87,11.53-11.74,23.08-17.71,34.82-5.98-11.76-11.86-23.33-17.74-34.89h0Zm39.52-24.66c.01-.05.02-.11.04-.17-.12-.08-.24-.17-.37-.24-1.55-.83-1.75-1.2-1.51-2.96.11-.79.19-1.59.38-2.37.23-.91-.01-1.66-.57-2.34-.62-.74-1.24-1.47-1.93-2.13-3.02-2.87-5.75-5.99-8.25-9.32-3.04-4.06-6.09-8.12-9.17-12.15-4.21-5.51-7.83-11.38-10.82-17.64-.82-1.73-1.79-3.39-2.71-5.07-.21-.38-.54-.7-.82-1.04-.1.04-.18.09-.28.14.09.65.15,1.31.28,1.96.39,1.84.82,3.66,1.21,5.49.73,3.4,1.4,6.82.82,10.32-.27,1.62-.34,3.34-1.25,4.71-.87,1.32-1.15,2.68-1.2,4.18-.13,4.87-.3,9.74-.38,14.62-.03,2.04-.55,3.95-1.1,5.86-.18.6-.43,1.18-1.09,1.51-.24.13-.43.58-.46.9-.14,1.49.02,2.96.59,4.35.38.95.96,1.43,2.16,1.42,11.75-.06,23.51-.04,35.26-.04h1.15Zm34.65,44.95c1.33-1.52,2.27-3.09,2.54-4.96.59-4.15-.4-7.94-2.84-11.33-1.24-1.74-3-2.91-5.07-3.44-1.49-.38-3.06-.66-4.6-.71-3.91-.1-7.84-.04-11.76-.03-.35,0-.7.04-1.1.07v52.29h1.38c3.2,0,6.4.02,9.6-.01,1.2-.02,2.4-.09,3.57-.27,3.26-.51,6.39-1.43,9.26-3.13,3.47-2.06,5.79-5.01,6.71-8.96.82-3.55.82-7.13-.08-10.69-.98-3.88-3.22-6.73-6.87-8.44-.21-.1-.42-.22-.75-.39h0Zm178.41-29.45c-1.51-.26-312.77-.19-313.58.05v3.05h313.58v-3.1h0Zm-116.6,61.33h1.26c2.04,0,4.08-.08,6.12.02,2.92.13,5.73-.41,8.49-1.26,5.85-1.78,10.84-4.83,14.08-10.13,3.78-6.19,5.27-12.88,3.75-20.1-1.08-5.12-3.13-9.72-6.92-13.43-3.13-3.07-6.9-4.99-11.07-6.24-2.73-.82-5.49-1.36-8.38-1.23-2.08.09-4.16.01-6.24.02-.35,0-.7.04-1.11.07v52.29h0Zm-31.54-17.9c.35-.26.64-.46.91-.7,1.21-1.04,2.51-1.99,3.62-3.13,4.62-4.81,6.15-10.62,5.21-17.12-.73-5.06-3.51-8.74-7.92-11.23-1.82-1.02-3.76-1.77-5.77-2.3-.54-.14-1.1-.24-1.65-.24-3.24-.02-6.48-.01-9.71,0-.3,0-.61.05-.95.09v52.48h7.91v-9.27c0-1.04,0-2.08,0-3.12,0-1,.02-2.01.04-3.01.47.34.72.7.96,1.06,2.93,4.53,5.88,9.05,8.78,13.6.4.62.83.85,1.54.83,2.6-.04,5.2-.01,7.79-.02.3,0,.6-.05,1.07-.09-2.04-3.06-3.98-5.98-5.91-8.9-1.96-2.96-3.93-5.91-5.93-8.91h0Zm108.91-32.4c-.41-.18-.63-.29-.85-.38-5.04-1.99-10.24-2.4-15.56-1.58-3.35.52-6.6,1.51-9.37,3.46-4.75,3.36-8.25,7.76-10.14,13.32-1.55,4.57-1.65,9.23-.96,13.98,1.17,8.05,5.35,14.08,12.17,18.34,1.14.71,2.42,1.26,3.7,1.68,4.76,1.54,9.64,1.86,14.58,1.18,1.92-.26,3.72-.9,5.34-2.01.68-.46.99-1,.98-1.88-.04-6.48-.02-12.96-.02-19.43,0-.35-.05-.7-.07-1.02-1.39-.24-12.68-.19-13.55.04v6.91h6.47c.24,1.85.17,9.45-.11,10.31-2.58.13-5.16.23-7.72-.4-3.91-.96-7.38-2.68-9.83-5.98-5.43-7.27-5.73-16.54-.82-24.02,2.32-3.51,5.51-5.9,9.67-6.76,4.54-.95,9.05-.88,13.48.65.28.1.58.14.93.23.57-2.27,1.11-4.43,1.65-6.64h0Zm14.29,33.21h15.85c.02-2.71.04-5.28-.02-7.93-5.38-.02-10.59,0-15.79-.02-.23-2.61-.14-19.49.14-20.51h21.24c.27-1.49.21-5.93-.06-6.75-3.13-.24-28.45-.12-29.33.14v52.01c1.43.27,28.64.2,29.47-.05v-7.74h-16.13c-1.78,0-3.57-.01-5.38-.02v-9.12Zm-296.19,7.77c-.35.05-.61.09-.88.13-2.03.36-4.08.28-6.09-.06-11.01-1.84-19.49-11.91-18.03-23.9,1.15-9.43,7.87-16.82,17.19-18.74,1.67-.35,3.41-.35,5.11-.49.9-.07,1.79-.1,2.69-.15v-8.63c-7.77-1.4-21.08,1.46-29.14,12.9-7.29,10.35-7.46,23.87-.48,34.37,7.22,10.86,19.74,14.87,29.62,13.68v-9.12h0Zm53.04,9.27c-7.68-17.55-15.26-34.92-22.86-52.27-.09,0-.18-.01-.28-.02-7.6,17.38-15.2,34.77-22.86,52.28h8.11c1.56-3.43,3.11-6.83,4.65-10.21h20.46c1.57,3.45,3.13,6.85,4.66,10.23h8.11Zm93.06-76.79h33.11c.52,0,.98-.02,1.4-.46,1.45-1.49,2.96-2.92,4.43-4.39.54-.54,1.02-1.12,1.51-1.7.53-.64.79-1.37.71-2.22-.12-1.35-.14-2.71-.29-4.07-.43-3.93-.84-7.87-1.35-11.79-.43-3.29-1.1-6.54-1.13-9.88-.01-2.12-.17-4.24.55-6.29,0-.03-.08-.1-.17-.21-.77.76-1.54,1.51-2.31,2.25-3.57,3.41-6.76,7.16-9.13,11.51-3.25,5.95-7.4,11.19-12.24,15.9-1.05,1.02-1.8,2.21-2.34,3.57-.98,2.49-2.76,4.11-5.35,4.93-2.36.74-4.67,1.64-6.99,2.48-.1.04-.16.14-.4.35h-.02Zm53.05,24.28c-2.23-.23-7.05-.13-7.87.13-.25,3.24-.13,51.45.13,52.36,2.22.21,6.89.13,7.73-.14v-52.33h0Zm-49.68,164.59c-.07.03-.15.07-.22.1-.29-.3-.59-.61-.87-.92-4.29-4.69-8.57-9.38-12.87-14.06-.27-.3-.47-.73-.98-.77-.23,2.42-.13,27.53.12,28.45h4.23v-1.51c0-4.55,0-9.11,0-13.67,0-.4-.15-.86.26-1.24,4.84,5.39,9.63,10.74,14.43,16.1.02.02.07.02.1.02.04,0,.07-.03.1-.04v-28.4h-4.32v15.95h0Zm-60.21,12.86c3.02.01,5.88.25,8.69-.66,3.78-1.23,6.82-3.33,8.52-7.02,1.35-2.92,1.95-5.97,1.33-9.21-1.04-5.45-4.02-9.2-9.35-10.98-.46-.15-.92-.27-1.38-.41-2.3-.72-4.68-.39-7.02-.45-.26,0-.52.08-.79.11v28.61h0Zm87.57-28.67c-.27,1.48-.21,27.79.07,28.61,1.9.23,15.16.14,16.01-.11v-4.16h-3.99c-1.31,0-2.56.01-3.84,0-1.3-.01-2.6.05-3.87-.05-.24-1.66-.18-4.04.13-4.99h8.43v-4.39h-8.51c-.26-1.29-.23-10.2.05-11.22h11.6v-3.69h-16.08Zm-57.75.1l-.26-.05c-4.14,9.49-8.32,18.96-12.51,28.64,1.35,0,2.46-.04,3.57.02.68.03,1.03-.23,1.26-.83.23-.6.51-1.17.77-1.75.48-1.05.96-2.08,1.43-3.1h11.18c.18.36.35.72.51,1.08.58,1.27,1.13,2.55,1.74,3.82.14.29.43.71.68.73,1.29.07,2.6.04,4.12.04-4.23-9.66-8.36-19.12-12.49-28.58h0Zm54.4,24.32c-.74,0-1.34,0-1.93,0-6.4-.07-11.19-6.29-9.63-12.5,1.17-4.68,5.1-7.8,9.92-7.88.54-.01,1.09-.05,1.7-.09v-3.01c0-.32-.04-.63-.05-.93-4.12-1.3-10.7,1.61-13.76,6.02-3.6,5.2-3.43,12.04.46,17,3.13,4.01,9.77,6.7,13.3,5.38v-4h0ZM132.66,77.31c.21-.5.43-1,.64-1.51.76-1.89,1.68-3.73,2.24-5.68,1.32-4.68,2.77-9.34,3.43-14.19.09-.68.45-1.36.8-1.97.3-.52.88-.66,1.48-.59.64.08.63.66.74,1.09.38,1.46.24,2.94-.09,4.39-.9,4.07-2.4,7.95-3.92,11.81-.85,2.14-1.99,4.18-2.99,6.26-.13.26-.26.54-.38.8.1.08.19.15.29.24.11-.21.21-.42.34-.61.98-1.55,2.06-3.04,2.93-4.66,1.23-2.29,2.24-4.68,3.46-6.97,1.1-2.07,1.9-4.22,2.4-6.49.87-3.86,1.72-7.71,2.57-11.57.01-.06-.04-.15-.07-.26-.15.06-.3.1-.43.19-1.39.95-2.59,2.06-3.05,3.76-.1.38-.25.76-.45,1.1-.29.51-.99.76-1.57.66-.6-.1-.73-.6-.81-1.06-.17-.94-.26-1.9.59-2.45-1.4-2.15-2.74-4.22-4.07-6.28.09,1.34.37,2.58.57,3.83.11.66.2,1.37.09,2.01-.63,3.7-1.19,7.42-2.03,11.07-1.29,5.61-2.36,11.25-2.68,17.08h0Zm99.79,204.91c.02,2.25,1.24,3.32,3.48,3.02.04,0,.08-.02.12-.02,3.37-.51,7.07-4.58,7.26-8,.11-1.93-.99-3.11-2.93-3.12-.35,0-.73.02-1.07.11-3.46.88-5.51,3.2-6.57,6.49-.16.48-.18,1.02-.27,1.52h0ZM21.92,187.75h13.92v-3.1h-13.92s0,3.1,0,3.1Zm110.32-108.78v1.24c.6-.51,1.06-.89,1.52-1.28-.03-.06-.07-.11-.1-.17-.46.07-.9.13-1.42.21h0Z"/><path d="m267.43,124.24c-.42-1.18-1.34-1.76-2.61-1.86-.23-.01-.48-.09-.7-.18-1.93-.82-3.96-1.18-6.05-1.34-2.51-.19-5-.54-7.48-1.03-1.4-.28-2.86-.21-4.29-.31-.96-.07-1.91-.12-2.87-.21-.65-.06-1.18-.34-1.62-.89-.41-.52-.94-1.09-1.53-1.29-1.32-.44-2.21-1.52-3.47-2.02-.17-.07-.3-.24-.51-.4.15-.23.25-.44.4-.61,1.21-1.39,2.4-2.79,3.66-4.13,1.37-1.46,2.74-2.92,4.2-4.27,3.19-2.96,6.01-6.18,8.15-9.99,1.07-1.89,1.78-3.78,1.68-6.01-.13-2.71-.05-5.43-.02-8.15.02-1.02-.32-1.8-1.19-2.32-1.12-.66-1.54-1.64-1.54-2.9,0-1.58-.45-3.07-1.07-4.52-.56-1.29-.9-2.63-.84-4.07.09-2.2-.24-2.06-2.41-2.57-.15-.04-.32.02-.54.04-.15-.32-.32-.63-.43-.96-.6-1.82-1.76-3.19-3.26-4.33-1.11-.83-1.12-1.4-.08-2.26,1.7-1.4,3.41-2.81,5.59-3.39.79-.21,1.66-.38,2.46-.28,1.62.19,3.19.2,4.74-.3.33-.11.7-.11,1.1-.17.54,1.51,1.14,2.94,1.55,4.43.42,1.48,1.21,2.68,2.24,3.76.64.68,1.05.77,1.92.35.57-.28,1.14-.6,1.62-1.01,1.56-1.37,3.11-2.76,4.58-4.22.46-.46.73-1.14,1.02-1.74.3-.61.51-1.26.77-1.88.43-1.01,1.14-1.62,2.22-1.99,1.34-.47,2.68-.74,4.08-.85,1.59-.12,3.18-.4,4.77-.36,1.87.06,3.73.38,5.6.6.64.07,1.27.14,1.89.21.3.38.14.74-.13.97-1.7,1.51-2.13,3.61-2.71,5.64-.14.46-.24.92-.4,1.5-.85-.06-1.68-.06-2.5-.18-1.64-.25-2.8.2-3.41,1.73-.67,1.66-1.14,3.4-1.62,5.13-.49,1.76-.7,3.61-1.61,5.25-.22.4-.27.92-.31,1.39-.42,4.71-.32,9.42.4,14.1.05.32.13.64.26.92,1.62,3.64,2.38,7.53,3.35,11.36,1,3.97,1.31,8.03,1.73,12.08.25,2.46.73,4.89,1.05,7.35.14,1.02.27,2.07.23,3.09-.05,1.35-.86,2.23-2.18,2.5-.86.18-1.74.28-2.61.29-1.56.02-3.12-.13-4.67-.08-2.15.07-4.3.24-6.61.38l.03.03Z"/><path d="m257.94,47.71c-.33.13-.5.16-.61.26-1.46,1.35-3.27,1.31-5.08,1.3-.51,0-.82-.31-.95-.77-.11-.38-.21-.78-.21-1.17-.04-1.42-.75-2.42-2.01-3.01-.51-.24-.63-.58-.49-1.06.17-.58.41-1.13.57-1.7.26-.89.46-1.78-.07-2.66-.13-.22-.13-.54-.17-.81-.18-1.06-.32-2.12-.52-3.17-.13-.71-.1-1.36.47-1.88.6-.54.75-1.04.37-1.88-.66-1.42.03-2.49,1.6-2.54.86-.03,1.75.11,2.59.33,1,.26,1.8.15,2.7-.46.73-.49,1.66-.78,2.55-.94,1.5-.28,3.03-.2,4.52.22,1.17.33,2.22.88,3.06,1.79.73.79,1.52,1.53,2.23,2.35.66.76,1.22,1.57.18,2.58.57.15.98.25,1.39.37.88.25,1.33.85,1.39,1.74.08,1.09-.04,2.16-.46,3.17-.49,1.17-.29,2.13.64,3.03,1.21,1.17,1.75,2.63,1.69,4.33-.04.99,0,1.99,0,3.1-.53.15-1.08.37-1.67.46-1.08.17-1.85.75-2.32,1.69-.38.75-.69,1.53-.98,2.31-.32.84-.77,1.56-1.45,2.15-1.17,1.02-2.27,2.13-3.48,3.11-1.36,1.11-1.58,1.04-2.7-.29-.7-.84-1.2-1.76-1.48-2.84-.21-.85-.55-1.67-.88-2.48-.21-.54-.19-1.03-.14-1.6.12-1.34.08-2.69.05-4.05,0-.29-.18-.58-.32-.99h0Z"/><path d="m133.51,31.27c.48-.78,1.04-.85,1.59-.94.87-.13,1.75-.19,2.62-.33,1.48-.24,1.63-.39,1.85-1.86.29-1.97.61-3.95.8-5.94.12-1.15.63-1.82,1.68-2.22,2.63-1.02,5.32-1.4,8.11-.91,1.38.25,2.76.42,4.14.68.54.1,1.09.26,1.6.49.91.41,1.4,1.15,1.51,2.14.21,1.94.47,3.88.65,5.83.05.58.32.87.84.99.9.21,1.79.4,2.68.62.43.1.85.22,1.26.38.25.1.57.24.68.46.16.33.29.76.22,1.09-.1.47-.56.47-.99.4-1.34-.22-2.68-.42-4.02-.66-3.49-.6-7.01-.44-10.52-.39-3.33.04-6.6.53-9.89.99-1.13.16-2.24.11-3.32-.2-.48-.13-.91-.4-1.47-.65h0Z"/><path d="m306.71,298.01c-.26.35-.33.48-.43.59-7.06,7.14-14.38,13.98-22.71,19.64-2.14,1.45-4.36,2.8-6.58,4.14-.77.46-1.58.95-2.57.89-.38-.68-.22-1.38.03-1.98.55-1.32,1.05-2.7,1.83-3.88,6.68-10.01,15.76-16.58,27.67-18.98.83-.17,1.68-.25,2.77-.41h0Z"/><path d="m187.14,239.31v-21.6c.85,0,1.67-.04,2.49,0,2.4.13,4.76.52,6.99,1.45,3.03,1.26,5.09,3.4,5.76,6.68.41,2.02.38,4.05-.22,6.04-.77,2.56-2.47,4.32-4.84,5.49-1.96.96-4.06,1.43-6.21,1.65-1.26.13-2.54.18-3.97.27h0Z"/><path d="m187.15,200.53c2.35,0,4.57.12,6.6,1.23,1.57.85,2.49,2.19,2.78,3.96.6,3.71-.91,6.53-4.34,8.04-1.57.69-3.23,1.08-5.04,1.21v-14.43h0Z"/><path d="m271.71,238.01v-36.12c3.56-1.1,11.62,2.42,14.96,6.58,4.29,5.34,5.31,13.57,1.61,20.43-2.95,5.48-10.77,9.78-16.58,9.1h0Z"/><path d="m223.94,221.89v-21.43c5.41-.2,9.77,3.68,10.21,9.07.15,1.84.07,3.67-.46,5.46-.75,2.54-2.26,4.51-4.67,5.62-1.21.57-2.55.89-3.85,1.27-.35.1-.77.01-1.24.01h0Z"/><path d="m89.27,211.76c2.53,5.88,4.93,11.48,7.39,17.18h-14.78c2.46-5.7,4.86-11.31,7.39-17.18h0Z"/><path d="m152.88,366.72v-19.95c2.35-.52,6.6,1.36,8.32,3.83,2.43,3.49,2.65,7.24.66,10.97-1.85,3.46-5.14,4.65-8.99,5.15Z"/><path d="m174.11,361.57c1.35-3.15,2.65-6.17,4.05-9.42,1.4,3.25,2.7,6.27,4.05,9.42h-8.1Z"/></svg>