<?xml version="1.0" encoding="UTF-8"?><svg id="Layer_1" xmlns="http://www.w3.org/2000/svg" viewBox="0 0 651.32 158.54"><path d="m184.39,80.09c-.37-39.72,31.69-70.9,71.53-70.89,37.62,0,69.15,31.79,68.69,71.57-.43,36.77-31.4,68.52-69.67,68.6-38.82.07-71.08-31.15-70.54-69.28Zm125.29-.14c.47-31.53-24.83-55.69-56.47-55.89-28.87-.18-54,25.6-54.1,55.26-.1,30.08,25.57,55.18,55.12,55.21,30.09.03,56.22-24.78,55.44-54.58Z"/><path d="m80.72,77.01c0-22.84,0-45.67.01-68.51,0-.52.2-1.04.31-1.55.4.2.82.37,1.2.6,6.44,3.81,12.9,7.58,19.32,11.44,5.11,3.08,10.16,6.26,15.28,9.34.08.05.95-.74.96-1.14.07-4.68.09-9.36.03-14.04-.02-1.78.46-2.56,2.44-2.47,3.75.16,7.52-.02,11.27.12.59.02,1.63,1.01,1.63,1.55.08,44.47.08,88.95,0,133.42,0,.54-1.08,1.53-1.68,1.55-3.87.14-7.76.03-11.64.1-1.5.02-2.03-.53-2.03-2.04.03-22.04.02-44.07.02-66.11,0-10-.21-20,.12-29.99.11-3.3-1.72-4.34-3.86-5.61-3.62-2.14-7.24-4.28-10.85-6.43-2.27-1.35-4.52-2.74-6.8-4.07-.09-.05-.58.3-.62.52-.1.5-.06,1.03-.06,1.55,0,36.72-.01,73.43.04,110.15,0,1.65-.59,2.06-2.07,2.03-3.8-.06-7.6.05-11.4-.09-.56-.02-1.55-1.01-1.55-1.56-.08-22.92-.07-45.83-.07-68.75Z"/><path d="m525.48,90.21c0,18.44-.02,36.87.03,55.31,0,1.47-.55,1.88-1.87,1.87-3.88-.03-7.76.04-11.64-.07-.47-.01-1.32-.9-1.32-1.38-.06-28.72-.07-57.43-.03-86.15,0-1.5-.36-1.99-1.92-1.96-4.44.1-8.88-.05-13.31.13-.7.03-1.95,1.26-1.95,1.94-.1,28.56-.1,57.11-.05,85.67,0,1.53-.48,1.89-1.9,1.85-3.68-.08-7.36-.06-11.04-.02-1.42.02-2.03-.38-2.02-1.98.05-28.4.02-56.79.07-85.19,0-1.84-.43-2.83-2.36-2.34-2.37.6-2.44-1.38-2.87-2.62-1.21-3.41-2-6.97-3.33-10.33-.91-2.31.55-1.86,1.69-1.89,1.64-.05,3.29-.15,4.91.02,1.77.19,2.26-.7,2.31-2.17.09-2.56-.04-5.15.31-7.66.56-3.94.89-8.05,2.31-11.69,2.17-5.54,6.31-9.32,12.31-11.06,4.92-1.43,9.81-1.68,14.67-.52,5.99,1.44,11.02,4.59,13.37,10.58,1.38,3.51,2.63,7.28,2.86,10.99.58,9.38.63,18.79.73,28.19.11,10.16.02,20.32.02,30.47Zm-23.36-47.19c2.48,0,4.96.05,7.43-.05.37-.01,1.04-.71,1.02-1.06-.17-4.07-.37-8.14-.71-12.19-.21-2.45-3.31-5.29-5.79-5.51-7.39-.68-10.07,3.74-10.64,9.63-.25,2.54-.13,5.12.02,7.67.03.54.92,1.42,1.46,1.46,2.39.16,4.79.07,7.19.06Z"/><path d="m332.06,77.06c0-22.84,0-45.68.01-68.52,0-.53.15-1.06.24-1.59.46.21.95.38,1.38.64,5.57,3.3,11.15,6.57,16.69,9.92,4.73,2.86,9.39,5.83,14.09,8.74,1.23.76,2.46,1.53,3.77,2.12.2.09,1.19-.74,1.2-1.15.09-4.96,0-9.92.13-14.88.01-.55.97-1.53,1.51-1.55,3.96-.13,7.92-.13,11.87,0,.55.02,1.54.97,1.54,1.49.07,44.52.07,89.04,0,133.56,0,.52-.92,1.46-1.42,1.48-4.12.12-8.24.12-12.35,0-.43-.01-1.17-1.12-1.17-1.72-.06-31.84-.14-63.68.07-95.52.02-3.7-1.75-5.05-4.38-6.51-3.62-2.01-7.12-4.24-10.67-6.38-2.2-1.33-4.39-2.67-6.61-3.95-.14-.08-.74.25-.8.48-.13.49-.06,1.03-.06,1.55,0,36.8,0,73.6.03,110.4,0,1.41-.46,1.78-1.77,1.76-3.92-.06-7.84.04-11.76-.09-.53-.02-1.48-.97-1.48-1.5-.07-22.92-.06-45.84-.06-68.76Z"/><path d="m610.64,147.39c-7.36,0-14.72,0-22.08,0-4,0-4.06-.26-2.68-3.99.92-2.49,1.35-5.15,2.04-7.73.88-3.31,1.83-6.61,2.7-9.92.63-2.41,1.13-4.84,1.76-7.25.89-3.41,1.88-6.79,2.77-10.19.6-2.27,1.07-4.56,1.66-6.83.93-3.64,1.94-7.27,2.86-10.91.61-2.42,1.09-4.87,1.71-7.28.85-3.28,1.8-6.53,2.67-9.81.63-2.35,1.19-4.72,1.8-7.08.9-3.48,1.84-6.95,2.72-10.43.88-3.47,1.7-6.96,2.59-10.43.88-3.39,1.84-6.76,2.71-10.15.73-2.86,1.42-5.73,1.99-8.62.05-.25-.93-1.02-1.44-1.02-8.24-.07-16.48-.08-24.72-.02-1.47.01-1.88-.39-1.84-1.87.12-3.76,0-7.52.1-11.28.01-.46.8-1.29,1.23-1.29,15.04-.07,30.08-.07,45.12.08.19,0,.7,2.15.48,3.17-.79,3.64-1.82,7.23-2.77,10.83-.88,3.32-1.8,6.63-2.69,9.95-.6,2.24-1.14,4.5-1.73,6.75-.95,3.61-1.96,7.2-2.9,10.81-.83,3.21-1.57,6.44-2.4,9.65-.93,3.6-1.96,7.18-2.86,10.79-.84,3.33-1.53,6.71-2.37,10.04-.86,3.43-1.84,6.82-2.75,10.23-.58,2.15-1.14,4.31-1.71,6.47-1.23,4.73-2.48,9.45-3.68,14.19-.59,2.34-1.06,4.72-1.66,7.06-.87,3.38-1.85,6.74-2.63,10.14-.08.35.9,1.35,1.4,1.35,9.44.08,18.88.1,28.32.03,1.69-.01,2.23.5,2.17,2.19-.12,3.36-.13,6.72,0,10.08.08,1.88-.71,2.33-2.39,2.32-7.84-.05-15.68-.02-23.52-.02Z"/><path d="m557.89,147.39c-7.88,0-15.76,0-23.64,0-1.43,0-2.32.04-1.36-1.97.95-2,1.17-4.33,1.73-6.52.92-3.61,1.86-7.21,2.79-10.81.58-2.27,1.15-4.55,1.74-6.82.93-3.57,1.89-7.12,2.8-10.69.85-3.36,1.6-6.74,2.47-10.1.9-3.5,1.92-6.96,2.84-10.45.57-2.19,1.02-4.42,1.58-6.62.91-3.56,1.89-7.1,2.82-10.65.59-2.25,1.13-4.51,1.69-6.76.88-3.48,1.75-6.97,2.64-10.45.63-2.47,1.26-4.94,1.91-7.4.9-3.4,1.83-6.79,2.72-10.19.6-2.29,1.15-4.59,1.74-6.89.18-.71.37-1.43.65-2.11.9-2.16.21-3.27-2.09-3.27-8.08,0-16.16.02-24.24-.06-.44,0-1.23-.82-1.24-1.27-.1-3.92-.1-7.84,0-11.76.01-.47.87-1.33,1.34-1.33,14.88-.07,29.76-.08,44.64-.04,2.5,0,1.15,1.95.98,2.8-.51,2.63-1.38,5.19-2.11,7.77-.95,3.4-1.94,6.8-2.83,10.22-.83,3.2-1.52,6.44-2.33,9.65-.9,3.56-1.9,7.1-2.81,10.67-.61,2.37-1.13,4.77-1.72,7.15-.85,3.37-1.73,6.73-2.6,10.09-.64,2.5-1.27,5.01-1.93,7.51-.92,3.43-1.9,6.84-2.79,10.27-.62,2.37-1.08,4.78-1.71,7.14-.9,3.4-1.92,6.77-2.82,10.18-.6,2.26-1.04,4.57-1.62,6.83-.9,3.57-1.88,7.12-2.79,10.69-.61,2.4-1.17,4.82-1.75,7.23-.02.08.01.17-.02.24-1.99,4.2,1.26,3.13,3.24,3.14,8.76.04,17.52,0,26.28.08.44,0,1.24.81,1.25,1.27.1,3.6-.06,7.2.11,10.8.09,1.94-.44,2.5-2.41,2.47-7.72-.12-15.44-.05-23.16-.05Z"/><path d="m465.43,59.82c0,13.8.14,27.6-.06,41.39-.09,5.95-.33,12-1.47,17.82-1.56,7.95-5.02,15.31-11.7,20.3-3.62,2.7-7.97,4.49-12.16,6.32-2.49,1.09-5.26,1.55-7.95,2.09-.43.09-1.52-.9-1.55-1.43-.15-3.15.24-6.36-.16-9.46-.45-3.46,1.71-3.88,4.09-4.65,5.18-1.69,9.62-4.47,12.42-9.37,2.22-3.88,3.05-8.11,3.09-12.51.23-27.68.43-55.36.55-83.04,0-.52-1.16-1.47-1.8-1.49-5.48-.12-10.96-.05-16.43-.12-.38,0-1.08-.69-1.09-1.07-.08-4.08-.08-8.16,0-12.24,0-.38.67-1.06,1.03-1.06,10.6-.06,21.2-.07,31.79.02.48,0,1.35,1.04,1.35,1.6.07,15.64.06,31.27.06,46.91Z"/><path d="m168.66,86.72c0,19.6-.02,39.19.04,58.79,0,1.61-.52,1.94-1.97,1.91-3.52-.08-7.04-.1-10.56,0-1.61.04-2.12-.44-2.12-2.1.04-38.47.03-76.95.03-115.42,0-.48,0-.96,0-1.44,0-1.89-.48-2.97-2.82-2.83-3.87.23-7.75.09-11.63.02-.36,0-1.02-.66-1.02-1.02-.07-4.08-.08-8.16,0-12.24,0-.39.71-1.11,1.1-1.11,14.44-.06,28.87-.06,43.31,0,.43,0,1.21.81,1.22,1.25.1,3.92.1,7.84,0,11.75-.01.48-.84,1.33-1.31,1.34-4,.11-8,.11-12,.04-1.65-.03-2.31.56-2.3,2.25.04,19.6.02,39.19.02,58.79Z"/><path d="m9.4,79.16c0-22,.01-43.99-.03-65.99,0-1.5.37-2.02,1.93-1.98,3.84.11,7.68-.04,11.51.11.59.02,1.64,1.06,1.64,1.63.08,39.31.08,78.62.04,117.94,0,1.52.3,2.05,1.95,2.02,7-.1,14-.06,20.99,0,.41,0,1.15.73,1.16,1.13.09,4.04.09,8.08,0,12.12,0,.42-.77,1.19-1.19,1.19-12.2.06-24.39.07-36.59-.03-.48,0-1.36-1.17-1.36-1.8-.07-22.12-.06-44.23-.06-66.35Z"/><path d="m67.32,79.28c0,22.2,0,44.4-.06,66.59,0,.51-.89,1.43-1.39,1.45-4.04.12-8.08.12-12.11,0-.49-.01-1.37-.9-1.37-1.38-.06-44.44-.06-88.87,0-133.31,0-.47.88-1.33,1.36-1.34,4.04-.11,8.08-.11,12.11,0,.5.01,1.39.91,1.39,1.39.07,22.2.06,44.4.06,66.59Z"/></svg>