<?xml version="1.0" encoding="UTF-8"?><svg id="Layer_1" xmlns="http://www.w3.org/2000/svg" viewBox="0 0 595.28 76.67"><path d="m149.55,47.63c3.21-5.52,1.33-11.38,2.3-16.72,2.27-.68,2.81.71,3.27,2,1.18,3.31,2.08,6.7,1.95,10.24-.11,2.85.7,5.5,1.42,8.23,2.13-12.31,1.87-24.84,3.93-37.05,1.48-.19,1.99.49,1.84,1.49-.5,3.32-1.14,6.61-1.67,9.92-.18,1.11-.23,2.24-.24,3.36-.03,3.14,0,6.27,0,9.41.03,6.64-1.11,13.17-1.72,19.75-.1,1.06-.37,2.22-1.24,3.04-1.25.17-1.5-.76-1.69-1.59-.81-3.65-1.9-7.28-2.22-10.98-.26-3.01-2.18-5.47-2.02-8.56-1.9,6.91-.88,14.2-3.14,21.22-1.43-1.01-1.58-2.08-1.74-3.2-.72-5.31-1.22-10.63-1.75-15.95-.75-7.52-1.78-15.11-4.2-22.37-.31-.94-.6-1.93-.66-2.91-.06-1.06.41-2,1.62-2.17,1.28-.18,1.87.71,2.02,1.75.6,4.19,1.88,8.25,1.74,12.58-.2,6.13.99,12.13,2.18,18.51Z"/><path d="m244.72,59.77c-.98-.81-.93-1.91-.89-3.04.08-2.25.06-4.51.16-6.76.48-11.25,1.04-22.5.78-33.77-.07-3,2.25-4.86,5.51-4.35,2.68.42,5.44.83,7.88,2.2,2.55,1.43,4.13,4.04,4.61,6.52.54,2.78,1.27,5.69.51,8.83-.68,2.84-2.04,4.77-4.23,6.26-2.57,1.74-5.63,2.35-8.44,3.5,3.94,5.24,8.16,10.71,12.2,16.32.8,1.1,2.3,2.52.57,4.44-3.17-2.9-4.45-7.01-7.29-9.9-2.79-2.85-4.65-6.48-7.86-9.47-1.21,3.07-1.56,5.98-1.68,8.9-.1,2.5,0,5.01-.04,7.52-.03,1.55-.09,1.55-1.78,2.81Zm3.7-24.17c1.22.37,2.44.11,3.68.03,3.62-.24,6.01-1.65,7.45-5.36.83-2.14,1.22-4.02.72-6.09-.4-1.69-1.22-3.24-2.1-4.78-2.47-4.31-5.06-5.64-10.25-4.72-2.15,6.07,1.11,12.34-.33,18.5-.18.77.15,1.73.83,2.43Z"/><path d="m71.51,61.78c-2.97-8.84-1.26-17.43-2.02-25.78-2.31-1.4-4.51-.41-6.66-.08-2.23.34-4.37-1.09-6.84-.28-.37,2.36-.96,4.66-1.05,6.98-.2,4.86-.14,9.73-.2,14.59-.01.98.07,2.05-1.33,2.51-2.02-2.53-2.23-5.61-1.66-8.48.94-4.74.49-9.49.69-14.23.19-4.38-.06-8.78-.08-13.16-.01-2.75-1.05-5.4-.75-8.19.24-2.2.26-2.39,2.4-3.89,1.66,2.11.45,4.59.9,6.8.45,2.21.77,4.41.69,6.69-.08,2.37-.02,4.74-.02,7.15,4.5,2.19,8.98.66,13.42.74,1.43-.76,1.37-2.17,1.36-3.56,0-4.39-.04-8.78,0-13.17.01-1.19-.4-2.51.8-3.61,1.32.41.96,1.56.96,2.43.02,7.4-.02,14.8-.02,22.2,0,5.27.03,10.53.03,15.8,0,1.26.13,2.47.48,3.7.41,1.43.46,2.94-1.14,4.86Z"/><path d="m516.51,15.06c2.23,5.03,4.03,9.84,4.59,15.14.36,3.41,2.3,6.52,3.28,9.86.52,1.78,1.27,3.59,1.49,5.38.28,2.21,1.4,3.97,1.95,5.98,1.32-.19.98-1.11.98-1.77.03-5.02-.08-10.04.04-15.06.15-6.21.48-12.41.72-18.62.05-1.16.3-2.21,1.35-2.95.76,1.2.41,2.49.41,3.71,0,8.28.19,16.58-.19,24.84-.18,3.93.62,7.89-.58,11.84-.5,1.66-.38,3.7.43,5.53.62,1.41.43,2.91.07,4.62-1.85-1.05-2.07-2.72-2.41-4.24-.21-.96-.26-1.94-.73-2.86-3.3-6.51-5.07-13.57-7.07-20.51-.89-3.08-1.24-6.31-2.76-9.61-.75,2.46-1.45,4.52-.53,6.73-1.29,5.92.17,12.01-1.13,17.94-.18.83-.16,1.79.09,2.6.9,2.96.2,5.92.51,8.93-1.56-.03-1.66-.96-1.69-1.79-.07-2.13-.07-4.27-.07-6.4,0-11.04.03-22.09.01-33.13,0-2.02.16-3.98,1.22-6.17Z"/><path d="m559.9,24.87c-1.06-4.51-3.83-7.31-4.88-10.94-1.68-1.08-3.15,1.51-4.85.02-2.71,3.12-3.55,6.74-3.76,10.46-.23,4,0,8.03-.05,12.05-.02,1.87.33,3.86-.53,5.57-.81,1.62,1.17,3.52-.69,4.9,2.08,2.11.36,5.07,1.64,7.37.3.55.74,1.13.75,1.71.04,3.09,2.09,4.01,4.85,4.46,1.95-.31,3.29-1.67,4.1-3.65.8-1.97,1.65-3.92,2.4-5.91,1.36-3.59.75-7.1-.35-10.58-2.25-1.2-4.83.33-7.01-1.11,2.68-1.92,6.37-2.49,9.62-1.46.63,7.05.68,14.12-2.24,20.87-.81,1.89-2.58,3.01-3.95,4.21-1.48.39-2.66-.27-3.85-.5-2.02-.4-3.67-1.57-4.5-3.61-1.27-3.12-2.25-6.33-2.75-9.67-.66-4.33-1.23-8.62-.12-13.01.45-1.77.23-3.76.07-5.63-.49-5.59,1.75-10.75,2.46-16.16.22-1.66,2.67-3.03,4.74-3.1,3.83-.12,8.71,3.5,9.85,7.28q.71,2.35-.95,6.45Z"/><path d="m277.91,61.37c-1.35-.88-1.55-2.17-1.54-3.62.01-6.51-.36-13.05.09-19.53.3-4.24.45-8.47.65-12.71.11-2.43-.78-4.67-.79-7.06-.02-4.23,2.83-6.38,6.77-4.86,1.28.49,2.46,1.16,3.86,1.33.43.05,1.07.46,1.16.82.61,2.33,2.64,3.57,3.92,5.38,1.85,2.63,2.5,5.8,3.02,8.78.69,3.95,1.35,7.94.58,12.15-.58,3.18-1.44,6.31-2.03,9.49-.56,3.04-3.06,5.05-5.03,7.29-1.69,1.92-4.21,1.24-6.27,2-1.35.5-2.93.38-4.38.53Zm1.34-45.86c-.63,1.39-.42,2.66-.42,3.89-.02,5.51,0,11.01,0,16.52-.01,6.63-.07,13.26-.03,19.9,0,1.29-.48,2.8,1.09,3.91,2.33-.38,4.84-.63,6.62-2.64,2.83-3.19,5.23-6.68,6.28-10.89,1.71-6.89,1.02-13.63-1.79-20.1-1.74-4.01-3.7-7.93-7.77-10.26-1.29-.74-2.42-1.2-3.97-.34Z"/><path d="m191.89,35.24c.56,1.03.61,1.74.13,2.55-3.26-.02-6.51.36-9.75,1.37-1.09,2.93.53,5.7.37,8.54-.16,2.87-.03,5.76-.03,8.69,2.51,2.01,5.28,1.26,7.93,1,1.88-.18,9.93.23,12.09.85.28.84.1,1.52-.81,1.75-.59.15-1.24.16-1.86.16-5.5.02-11.01.03-16.51.01-.86,0-1.73-.15-2.44-.22-1.08-.85-.82-1.93-.86-2.89-.47-12.89-1.05-25.77-.8-38.67.02-1.24,0-2.48,0-4.15,7.13-.46,14-.29,21.3-.12-1.95,2.03-3.36,2.34-8.56,2.29-2.99-.03-5.98,0-9.11,0-1.66,6.38-.99,12.56-.92,19.02,3.36-.23,6.55-.62,9.83-.16Z"/><path d="m87.82,14.01c.78-.93,1.6-1.4,2.45-1.44,5.06-.23,10.15.13,15.17-.9.18,2.86.1,3.09-2.08,3.21-2.75.14-5.51.04-8.26.1-1.22.03-2.51-.32-4.02.79,1.04,5.53.18,11.31-.09,17.1,3.26,1.41,6.52-.02,9.37,1.05.49,1.25.03,1.92-1.02,2.03-1.24.13-2.5,0-3.75.08-1.35.08-2.76-.27-4.44.69.87,6.46.73,13.11-.33,19.46,1.76,1.32,3.34,1.52,4.99,1.51,3.13-.02,6.26-.03,9.39-.04,1.29,0,2.55.03,2.67,2.05-3.01,1.04-6.13.22-9.16.49-2.91.25-5.99-.81-8.53,1.26-1.94-1.25-1.74-3.07-1.75-4.8,0-8.03,0-16.06,0-24.1,0-4.39,0-8.79-.02-13.18,0-1.86.23-3.75-.61-5.34Z"/><path d="m458.93,57.85c-1.35-1.18-1.86-2.31-1.72-4.21.45-5.98.49-11.98-.16-17.97-.12-1.09-.26-2.25-.02-3.3.88-3.85.38-7.73.45-11.6.04-2.28.54-4.39,1.14-6.97,1.92,2.23,1.04,4.54,1.29,6.62.28,2.32.87,4.76.43,6.96-.44,2.21.52,4.55-1.13,6.87,5.12,1.43,10.02.51,14.59.73.45-.62.75-.87.71-1.02-1.09-4.02.93-8.11-.39-12.2-.59-1.82-.14-3.98-.09-5.98.02-.91.27-1.78,1.94-1.61,0,6.64-.02,13.31.05,19.99,0,.51.66,1,1.11,1.64-.98,1.33-1.47,2.78-1.42,4.49.21,6.35-.3,12.71.46,19.05.06.53-.42,1.12-.62,1.61-1.11.32-1.37-.55-1.88-1.04.93-7.18-.22-14.43.74-21.58-2.88-1.26-12.15-1.24-15.02.08.7,4.27.52,8.64.55,12.99,0,1.14.17,2.23.46,3.33.34,1.31.03,2.44-1.47,3.13Z"/><path d="m352.62,59.61c-2.16.48-3.83,2.11-6.27,2.08-2.61-.04-4.37-1.12-5.33-3.37-1.02-2.38-1.95-4.9.3-7.24,1.31.8,1.28,1.93,1.4,3.07.35,3.15,2.29,4.3,5.2,3.17,4.19-1.64,6.18-4.48,5.7-9-.26-2.51-.07-5.35-2.47-7.2-.39-.31-.74-.92-1.13-.94-2.58-.17-3.64-2.36-5.24-3.82-1.56-1.43-2.4-3.19-2.35-5.33.05-2.39-.85-4.63-.82-7.06.04-3.11.83-5.9,2.14-8.65,1.91-4.02,6.17-4.63,9.54-2.46,2.24,1.44,4.77,3.5,3.57,7.04-.06.19-.33.31-.66.61-1.64-1.4-1.67-3.85-3.37-5.35-.49-.06-1.1-.16-1.72-.2-4.91-.31-6.36.82-6.83,5.64-.22,2.24-.36,4.46-.69,6.7-.43,2.89.79,5.51,3.27,7.12,1.5.97,2.58,2.36,3.98,3.35,3.14,2.23,3.54,5.54,3.87,8.9.15,1.49.09,2.98.51,4.46.27.95.34,2.02-.33,2.89-1.19,1.54-1.29,3.5-2.28,5.61Z"/><path d="m380.35,10.53c3.34,1.56,6.45.79,9.61-.02,1.31.28,2,1.3,3,2.64-3.2,1.74-6.78.85-9.87,2.25-.95,1.44-1.28,3.11-1.29,4.9-.02,8.03-.11,16.06-.12,24.09,0,5.61-1.07,11.13-1.34,16.72-.01.31-.4.6-.72,1.06-1.74-.97-1.9-2.5-1.66-4.14,2.02-13.7,1.11-27.48,1.26-41.23,0-.36-.15-.73-.24-1.19-1.92-1.27-4.11-.46-6.16-.66-1.54-.15-3.02-.19-3.26-2.41,1.48-1.07,3.21-1.64,4.85-1.23,2.22.55,4.19.4,5.94-.78Z"/><path d="m308.39,13.24c2.9,0,5.52.04,8.13-.01,2.86-.06,5.74.21,8.57-.63,1.04-.31,2.3-.25,2.4,1.68-2.7,1.35-5.58.52-8.34.67-2.74.15-5.49.03-7.92.03-1.06.56-1.5,1.29-1.46,2.01.29,5.84-1.71,11.63-.54,17.64,3.31,1.06,6.77-.21,10.02.76q-.79,2.17-9.87,3.17c-.6,2.65-.74,14.75-.22,19.02.18.17.35.47.54.49,5.23.5,10.48.65,15.69-.05,1.48-.2,2.75-.59,3.2,1.35q-1.68,1.21-9.07,1.38c-3.24.07-6.49.22-9.81-.26-.89.16-1.18,1.62-2.81,1.26.21-15.98-.69-32.05,1.45-48.52Z"/><path d="m15.76,14.66c1.4-1.11,3.17-1.45,5.05-1.45,2.88,0,5.75.03,8.63,0,1.62-.02,3.22.04,4.83-.45,1.88-.57,3.63.07,5.87,1.37-3.69,1.43-7.1,1.33-10.81,1.77,0,7.43.25,14.79-.07,22.13-.31,7.27,1.68,14.52.32,22.67-2.38-2.93-2.64-5.6-2.67-8.24-.09-8.02-.18-16.05-.02-24.07.08-4.15-.91-8.15-.86-12.42-1.68-.36-3.13-.44-4.57.12-1.46.56-2.96.43-4.45.31-.8-.06-1.41-.49-1.25-1.74Z"/><path d="m220.46,15.96c-2.45-.71-4.85.35-7.45-1.68,5.72-1.55,10.7-.56,15.6-.09.45,1.16.06,1.74-.87,1.7-1.11-.04-2.22-.45-3.21.29-.15.24-.39.44-.4.66-.75,12.74-1.17,25.48-.85,38.24,0,.36.16.72.25,1.08,1.3,1.24,2.85.75,4.28.57.98-.12,1.7-.04,2.26.83.64.98.11,2.41-.94,2.18-4.05-.88-8.16.73-12.19-.41-.64-.18-1.18-.37-1.36-1.28,1.15-2.21,3.7-.44,5.41-1.76-.34-7.95-.19-16.05-.15-24.14,0-1.38,0-2.73.39-4.09.24-.82.35-1.77.18-2.6-.52-2.57-.21-5.15-.29-7.73-.02-.58-.41-1.15-.66-1.78Z"/><path d="m434.88,59.87c-.99-1.33-1.28-2.94-1.32-4.43-.15-6.49-.59-13.04.01-19.48.52-5.52.35-11,.52-16.49.03-1.09.28-2.27-.63-3.48-2.32.06-4.89.34-7.84-1.82,6.56-.42,12.25-.16,17.93-.14.47,0,1,.19,1.02,1.21-2.9.25-5.83.51-9.22.81-.34,14.63-.1,29.21-.47,43.83Z"/><path d="m500.91,14.41c-.56,1.79-2.39.92-3.45,1.65-.78.66-.69,1.57-.68,2.44.02,3.39-.11,6.79.17,10.16.15,1.83-.8,3.33-.77,5.13.1,5.99-.09,11.98-.23,17.96-.03,1.15.31,2.44-1.14,4.08-1.19-7.06.05-13.43.16-19.78.12-6.5.21-13.01-.18-19.44-1.02-1.64-2.87-1.37-4.5-1.96,2.56-.87,9.17-.97,10.64-.23Z"/><path d="m500.26,59.44c-.12,1.61-.96,2.1-1.81,2-2.49-.29-5.11-.1-8.06-1.62,3.66-1.39,6.68-.85,9.87-.38Z"/></svg>