<?xml version="1.0" encoding="UTF-8" standalone="no"?><svg width="138" height="1971" viewBox="0 0 138 1971" fill="none" xmlns="http://www.w3.org/2000/svg">
<path d="M2 30V0L136 0V30L2 30ZM2 109.8V8.4L29 8.4V109.8L2 109.8Z" fill="url(#paint0_linear_161_60)"/>
<path d="M2 158.875V128.875H136V158.875H2Z" fill="url(#paint1_linear_161_60)"/>
<path d="M2 270.378L2 227.578L136 171.978V208.178L32.4 248.378V250.378L136 289.978V325.978L2 270.378Z" fill="url(#paint2_linear_161_60)"/>
<path d="M2 369.359V339.359H136V369.359H2ZM2 452.759V347.759H29L29 452.759H2ZM56 449.759L56 347.759H82.8V449.759H56ZM109 452.759V347.759H136V452.759H109Z" fill="url(#paint3_linear_161_60)"/>
<path d="M2 503.312V473.312H136V513.912L70 545.312L38.6 557.912V560.112L70 572.312L136 602.713V643.513H2V613.513H70L91 614.513V612.312L70 604.513L10 576.513V540.112L70 512.112L91 504.312V502.112L70 503.312H2Z" fill="url(#paint4_linear_161_60)"/>
<path d="M0 731.05C0 716.517 2.33333 704.383 7 694.65C11.6667 684.917 18.3333 677.583 27 672.65C35.6667 667.717 46 665.25 58 665.25H136L136 695.25H60.2C52.6 695.25 46.4667 696.317 41.8 698.45C37.2667 700.717 34 704.45 32 709.65C30.1333 714.983 29.2 722.117 29.2 731.05C29.2 740.25 30.1333 747.45 32 752.65C34 757.85 37.2667 761.517 41.8 763.65C46.4667 765.783 52.6 766.85 60.2 766.85H136V796.85H58C46 796.85 35.6667 794.383 27 789.45C18.3333 784.517 11.6667 777.183 7 767.45C2.33333 757.85 0 745.717 0 731.05Z" fill="url(#paint5_linear_161_60)"/>
<path d="M0 879.753C0 866.286 1.73333 854.82 5.2 845.353C8.8 835.886 14.0667 828.686 21 823.753C28.0667 818.82 36.8 816.353 47.2 816.353H48.4V846.353H44.8C40.6667 846.353 37.3333 847.22 34.8 848.953C32.2667 850.82 30.4 854.153 29.2 858.953C28 863.753 27.4 870.686 27.4 879.753C27.4 887.753 27.8 893.886 28.6 898.153C29.5333 902.42 30.9333 905.353 32.8 906.953C34.6667 908.553 37.0667 909.353 40 909.353C44.1333 909.353 47.1333 907.953 49 905.153C50.8667 902.486 52.4 897.753 53.6 890.953L59 853.353C60.3333 845.353 62.5333 838.486 65.6 832.753C68.6667 827.153 72.7333 822.82 77.8 819.753C83 816.686 89.2667 815.153 96.6 815.153C101.667 815.153 106.667 816.22 111.6 818.353C116.533 820.62 120.933 824.153 124.8 828.953C128.8 833.753 132 840.02 134.4 847.753C136.8 855.62 138 865.22 138 876.553C138 890.286 136 901.553 132 910.353C128.133 919.286 122.6 925.953 115.4 930.353C108.333 934.753 100.133 936.953 90.8 936.953H89.6V906.753H92.4C96.6667 906.753 100.133 905.82 102.8 903.953C105.467 902.22 107.4 898.953 108.6 894.153C109.933 889.353 110.6 882.486 110.6 873.553C110.6 866.353 110.133 860.686 109.2 856.553C108.267 852.553 106.867 849.686 105 847.953C103.133 846.22 100.733 845.353 97.8 845.353C95.2667 845.353 93.1333 845.886 91.4 846.953C89.8 848.02 88.5333 849.686 87.6 851.953C86.6667 854.22 85.8667 857.22 85.2 860.953L79.2 898.553C77.6 908.553 75 916.486 71.4 922.353C67.8 928.353 63.4 932.686 58.2 935.353C53.1333 938.02 47.5333 939.353 41.4 939.353C34.2 939.353 27.4 937.353 21 933.353C14.7333 929.353 9.66667 922.953 5.8 914.153C1.93334 905.353 0 893.886 0 879.753Z" fill="url(#paint6_linear_161_60)"/>
<path d="M2 988.57V958.57H136V988.57H2Z" fill="url(#paint7_linear_161_60)"/>
<path d="M0 1079.87C0 1065.21 2.79999 1052.47 8.39999 1041.67C14.1333 1031.01 22.1333 1022.74 32.4 1016.87C42.8 1011.14 55 1008.27 69 1008.27C83 1008.27 95.1333 1011.14 105.4 1016.87C115.8 1022.74 123.8 1031.01 129.4 1041.67C135.133 1052.47 138 1065.21 138 1079.87C138 1093.87 135.8 1105.94 131.4 1116.07C127 1126.34 120.733 1134.27 112.6 1139.87C104.467 1145.47 94.6667 1148.27 83.2 1148.27H80.2V1114.87H83.2C92 1114.87 98.5333 1112.14 102.8 1106.67C107.067 1101.34 109.2 1092.61 109.2 1080.47C109.2 1070.74 107.867 1062.87 105.2 1056.87C102.667 1051.01 98.4667 1046.74 92.6 1044.07C86.8667 1041.41 79 1040.07 69 1040.07C59.1333 1040.07 51.2667 1041.41 45.4 1044.07C39.5333 1046.74 35.2667 1051.01 32.6 1056.87C30.0667 1062.87 28.8 1070.74 28.8 1080.47C28.8 1092.61 30.9333 1101.34 35.2 1106.67C39.4667 1112.14 46 1114.87 54.8 1114.87H57.8V1148.27H54.8C43.4667 1148.27 33.6667 1145.47 25.4 1139.87C17.2667 1134.27 11 1126.34 6.60001 1116.07C2.20001 1105.94 0 1093.87 0 1079.87Z" fill="url(#paint8_linear_161_60)"/>
<path d="M2 1204.87V1166.27H37V1204.87H2Z" fill="url(#paint9_linear_161_60)"/>
<path d="M2 1292.06V1235.66H29L29 1292.06C29 1301.26 30.0667 1308.59 32.2 1314.06C34.4667 1319.66 38.4667 1323.73 44.2 1326.26C50.0667 1328.93 58.3333 1330.26 69 1330.26C79.8 1330.26 88.0667 1328.93 93.8 1326.26C99.5333 1323.73 103.467 1319.66 105.6 1314.06C107.867 1308.59 109 1301.26 109 1292.06L109 1235.66H136V1292.06C136 1306.46 133.333 1318.86 128 1329.26C122.667 1339.79 115 1347.93 105 1353.66C95 1359.39 83 1362.26 69 1362.26C55 1362.26 43 1359.39 33 1353.66C23 1347.93 15.3333 1339.79 10 1329.26C4.66667 1318.86 2 1306.46 2 1292.06ZM2 1257.46V1227.46H136V1257.46H2Z" fill="url(#paint10_linear_161_60)"/>
<path d="M2 1406.87V1373.27L136 1431.87V1474.67L2 1533.67V1499.27L87.8 1462.47L108.6 1454.27V1452.07L87.8 1443.87L2 1406.87ZM31.6 1499.67V1405.27H58.6V1499.67H31.6Z" fill="url(#paint11_linear_161_60)"/>
<path d="M2 1577.67V1547.67H136V1579.67L72.6 1627.67L44.4 1646.07V1648.27L71.4 1646.87H136V1676.87H2V1644.87L66 1595.47L91.2 1578.47V1576.47L66.6 1577.67H2Z" fill="url(#paint12_linear_161_60)"/>
<path d="M0 1768.39C0 1753.72 2.79999 1740.99 8.39999 1730.19C14.1333 1719.52 22.1333 1711.26 32.4 1705.39C42.8 1699.66 55 1696.79 69 1696.79C83 1696.79 95.1333 1699.66 105.4 1705.39C115.8 1711.26 123.8 1719.52 129.4 1730.19C135.133 1740.99 138 1753.72 138 1768.39C138 1782.39 135.8 1794.46 131.4 1804.59C127 1814.86 120.733 1822.79 112.6 1828.39C104.467 1833.99 94.6667 1836.79 83.2 1836.79H80.2V1803.39H83.2C92 1803.39 98.5333 1800.66 102.8 1795.19C107.067 1789.86 109.2 1781.12 109.2 1768.99C109.2 1759.26 107.867 1751.39 105.2 1745.39C102.667 1739.52 98.4667 1735.26 92.6 1732.59C86.8667 1729.92 79 1728.59 69 1728.59C59.1333 1728.59 51.2667 1729.92 45.4 1732.59C39.5333 1735.26 35.2667 1739.52 32.6 1745.39C30.0667 1751.39 28.8 1759.26 28.8 1768.99C28.8 1781.12 30.9333 1789.86 35.2 1795.19C39.4667 1800.66 46 1803.39 54.8 1803.39H57.8V1836.79H54.8C43.4667 1836.79 33.6667 1833.99 25.4 1828.39C17.2667 1822.79 11 1814.86 6.60001 1804.59C2.20001 1794.46 0 1782.39 0 1768.39Z" fill="url(#paint13_linear_161_60)"/>
<path d="M2 1886.79V1856.79H136V1886.79H2ZM2 1970.19V1865.19H29V1970.19H2ZM56 1967.19V1865.19H82.8V1967.19H56ZM109 1970.19V1865.19H136V1970.19H109Z" fill="url(#paint14_linear_161_60)"/>
<defs>
<linearGradient id="paint0_linear_161_60" x1="69.0004" y1="-30.5" x2="82.5002" y2="2125" gradientUnits="userSpaceOnUse">
<stop stop-color="#27507C"/>
<stop offset="1" stop-color="#9B1E80"/>
</linearGradient>
<linearGradient id="paint1_linear_161_60" x1="69.0004" y1="-30.5" x2="82.5002" y2="2125" gradientUnits="userSpaceOnUse">
<stop stop-color="#27507C"/>
<stop offset="1" stop-color="#9B1E80"/>
</linearGradient>
<linearGradient id="paint2_linear_161_60" x1="69.0004" y1="-30.5" x2="82.5002" y2="2125" gradientUnits="userSpaceOnUse">
<stop stop-color="#27507C"/>
<stop offset="1" stop-color="#9B1E80"/>
</linearGradient>
<linearGradient id="paint3_linear_161_60" x1="69.0004" y1="-30.5" x2="82.5002" y2="2125" gradientUnits="userSpaceOnUse">
<stop stop-color="#27507C"/>
<stop offset="1" stop-color="#9B1E80"/>
</linearGradient>
<linearGradient id="paint4_linear_161_60" x1="69.0004" y1="-30.5" x2="82.5002" y2="2125" gradientUnits="userSpaceOnUse">
<stop stop-color="#27507C"/>
<stop offset="1" stop-color="#9B1E80"/>
</linearGradient>
<linearGradient id="paint5_linear_161_60" x1="69.0004" y1="-30.5" x2="82.5002" y2="2125" gradientUnits="userSpaceOnUse">
<stop stop-color="#27507C"/>
<stop offset="1" stop-color="#9B1E80"/>
</linearGradient>
<linearGradient id="paint6_linear_161_60" x1="69.0004" y1="-30.5" x2="82.5002" y2="2125" gradientUnits="userSpaceOnUse">
<stop stop-color="#27507C"/>
<stop offset="1" stop-color="#9B1E80"/>
</linearGradient>
<linearGradient id="paint7_linear_161_60" x1="69.0004" y1="-30.5" x2="82.5002" y2="2125" gradientUnits="userSpaceOnUse">
<stop stop-color="#27507C"/>
<stop offset="1" stop-color="#9B1E80"/>
</linearGradient>
<linearGradient id="paint8_linear_161_60" x1="69.0004" y1="-30.5" x2="82.5002" y2="2125" gradientUnits="userSpaceOnUse">
<stop stop-color="#27507C"/>
<stop offset="1" stop-color="#9B1E80"/>
</linearGradient>
<linearGradient id="paint9_linear_161_60" x1="69.0004" y1="-30.5" x2="82.5002" y2="2125" gradientUnits="userSpaceOnUse">
<stop stop-color="#27507C"/>
<stop offset="1" stop-color="#9B1E80"/>
</linearGradient>
<linearGradient id="paint10_linear_161_60" x1="69.0004" y1="-30.5" x2="82.5002" y2="2125" gradientUnits="userSpaceOnUse">
<stop stop-color="#27507C"/>
<stop offset="1" stop-color="#9B1E80"/>
</linearGradient>
<linearGradient id="paint11_linear_161_60" x1="69.0004" y1="-30.5" x2="82.5002" y2="2125" gradientUnits="userSpaceOnUse">
<stop stop-color="#27507C"/>
<stop offset="1" stop-color="#9B1E80"/>
</linearGradient>
<linearGradient id="paint12_linear_161_60" x1="69.0004" y1="-30.5" x2="82.5002" y2="2125" gradientUnits="userSpaceOnUse">
<stop stop-color="#27507C"/>
<stop offset="1" stop-color="#9B1E80"/>
</linearGradient>
<linearGradient id="paint13_linear_161_60" x1="69.0004" y1="-30.5" x2="82.5002" y2="2125" gradientUnits="userSpaceOnUse">
<stop stop-color="#27507C"/>
<stop offset="1" stop-color="#9B1E80"/>
</linearGradient>
<linearGradient id="paint14_linear_161_60" x1="69.0004" y1="-30.5" x2="82.5002" y2="2125" gradientUnits="userSpaceOnUse">
<stop stop-color="#27507C"/>
<stop offset="1" stop-color="#9B1E80"/>
</linearGradient>
</defs>
</svg>
